<?xml version="1.0" encoding="utf-8"?>
<!-- Generator: Adobe Illustrator 23.1.0, SVG Export Plug-In . SVG Version: 6.00 Build 0)  -->
<svg version="1.1" id="Layer_1" xmlns="http://www.w3.org/2000/svg" xmlns:xlink="http://www.w3.org/1999/xlink" x="0px" y="0px"
	 width="70px" height="40px" viewBox="0 0 70 40" style="enable-background:new 0 0 70 40;" xml:space="preserve">
<style type="text/css">
	.st0{fill:#E8E8E8;}
</style>
<g>
	<path class="st0" d="M21.5,15c0,0.8,0.1,1.4,0.2,1.9c0.2,0.5,0.4,1,0.7,1.5c0.1,0.2,0.1,0.3,0.1,0.5c0,0.2-0.1,0.4-0.4,0.6
		l-1.3,0.9c-0.2,0.1-0.4,0.2-0.5,0.2c-0.2,0-0.4-0.1-0.6-0.3c-0.3-0.3-0.5-0.6-0.8-1c-0.2-0.4-0.4-0.8-0.6-1.2
		c-1.6,1.9-3.7,2.9-6.1,2.9c-1.8,0-3.2-0.5-4.2-1.5s-1.5-2.3-1.5-4c0-1.8,0.6-3.2,1.9-4.3s3-1.6,5.1-1.6c0.7,0,1.4,0.1,2.2,0.2
		S17.2,9.9,18,10V8.5c0-1.6-0.3-2.7-1-3.3c-0.7-0.6-1.8-1-3.4-1c-0.7,0-1.5,0.1-2.3,0.3S9.9,4.9,9.1,5.2C8.8,5.3,8.5,5.4,8.4,5.5
		c-0.1,0-0.3,0.1-0.3,0.1c-0.3,0-0.4-0.2-0.4-0.6v-1c0-0.3,0-0.6,0.1-0.7C7.9,3,8.1,2.8,8.4,2.7C9.1,2.3,10,2,11,1.7
		c1-0.3,2.1-0.4,3.3-0.4c2.5,0,4.3,0.6,5.5,1.7c1.1,1.1,1.7,2.8,1.7,5.1L21.5,15L21.5,15z M13,18.1c0.7,0,1.4-0.1,2.2-0.4
		c0.8-0.3,1.4-0.7,2-1.3c0.3-0.4,0.6-0.8,0.7-1.3c0.1-0.5,0.2-1.1,0.2-1.8v-0.9c-0.6-0.1-1.3-0.3-1.9-0.4s-1.3-0.1-2-0.1
		c-1.4,0-2.4,0.3-3.1,0.8c-0.7,0.6-1,1.4-1,2.4c0,1,0.3,1.7,0.8,2.2C11.3,17.9,12.1,18.1,13,18.1z M29.8,20.4
		c-0.4,0-0.6-0.1-0.8-0.2c-0.2-0.1-0.3-0.4-0.4-0.8L23.7,3.2c-0.1-0.4-0.2-0.7-0.2-0.8c0-0.3,0.2-0.5,0.5-0.5h2
		c0.4,0,0.7,0.1,0.8,0.2c0.2,0.1,0.3,0.4,0.4,0.8l3.5,13.8L34,2.9c0.1-0.4,0.2-0.7,0.4-0.8c0.2-0.1,0.5-0.2,0.8-0.2h1.7
		c0.4,0,0.7,0.1,0.8,0.2c0.2,0.1,0.3,0.4,0.4,0.8l3.3,14l3.6-14c0.1-0.4,0.3-0.7,0.4-0.8c0.2-0.1,0.4-0.2,0.8-0.2h1.9
		c0.3,0,0.5,0.2,0.5,0.5c0,0.1,0,0.2,0,0.3c0,0.1-0.1,0.3-0.1,0.5l-5,16.2c-0.1,0.4-0.3,0.7-0.4,0.8s-0.4,0.2-0.8,0.2h-1.8
		c-0.4,0-0.7-0.1-0.8-0.2s-0.3-0.4-0.4-0.8L36,5.9l-3.2,13.5c-0.1,0.4-0.2,0.7-0.4,0.8c-0.2,0.1-0.5,0.2-0.8,0.2H29.8z M56.6,20.9
		c-1.1,0-2.2-0.1-3.2-0.4c-1-0.3-1.9-0.5-2.4-0.8c-0.3-0.2-0.6-0.4-0.6-0.6c-0.1-0.2-0.1-0.4-0.1-0.6v-1.1c0-0.4,0.2-0.6,0.5-0.6
		c0.1,0,0.3,0,0.4,0.1c0.1,0,0.3,0.1,0.5,0.2c0.7,0.3,1.5,0.6,2.3,0.7c0.8,0.2,1.7,0.3,2.5,0.3c1.3,0,2.3-0.2,3.1-0.7
		c0.7-0.5,1.1-1.1,1.1-2c0-0.6-0.2-1.1-0.6-1.5c-0.4-0.4-1.1-0.8-2.1-1.1l-3-0.9c-1.5-0.5-2.7-1.2-3.3-2.1c-0.7-0.9-1-1.9-1-3
		c0-0.9,0.2-1.7,0.6-2.3c0.4-0.7,0.9-1.3,1.5-1.7c0.6-0.5,1.3-0.8,2.2-1.1s1.7-0.4,2.6-0.4c0.5,0,0.9,0,1.4,0.1
		c0.5,0.1,0.9,0.1,1.4,0.2c0.4,0.1,0.8,0.2,1.2,0.3c0.4,0.1,0.7,0.3,0.9,0.4c0.3,0.2,0.5,0.3,0.6,0.5C62.9,3,63,3.2,63,3.5v1
		c0,0.4-0.2,0.7-0.5,0.7c-0.2,0-0.4-0.1-0.8-0.3c-1.2-0.5-2.5-0.8-4-0.8c-1.2,0-2.1,0.2-2.8,0.6c-0.6,0.4-1,1-1,1.9
		c0,0.6,0.2,1.1,0.6,1.5c0.4,0.4,1.2,0.8,2.3,1.1l3,0.9c1.5,0.5,2.6,1.1,3.2,2c0.6,0.9,1,1.8,1,2.9c0,0.9-0.2,1.7-0.5,2.4
		c-0.4,0.7-0.9,1.3-1.5,1.8c-0.6,0.5-1.4,0.9-2.3,1.2C58.7,20.8,57.7,20.9,56.6,20.9z"/>
	<path class="st0" d="M60.6,31.1c-6.9,5.1-16.9,7.8-25.5,7.8c-12,0-22.9-4.5-31.1-11.8c-0.6-0.6-0.1-1.4,0.7-0.9
		c8.9,5.1,19.8,8.3,31.1,8.3c7.6,0,16-1.6,23.7-4.8C60.7,29,61.7,30.3,60.6,31.1z M63.5,27.8c-0.9-1.1-5.8-0.5-8-0.3
		c-0.7,0.1-0.8-0.5-0.2-0.9c3.9-2.8,10.4-2,11.1-1c0.8,0.9-0.2,7.4-3.9,10.5c-0.6,0.5-1.1,0.2-0.9-0.4C62.5,33.6,64.3,29,63.5,27.8z
		"/>
</g>
</svg>
