<?xml version="1.0" encoding="utf-8"?>
<!-- Generator: Adobe Illustrator 23.1.0, SVG Export Plug-In . SVG Version: 6.00 Build 0)  -->
<svg version="1.1" xmlns="http://www.w3.org/2000/svg" xmlns:xlink="http://www.w3.org/1999/xlink" x="0px" y="0px" width="100.9px"
	 height="88.9px" viewBox="0 0 100.9 88.9" style="enable-background:new 0 0 100.9 88.9;" xml:space="preserve">
<style type="text/css">
	.st0{opacity:5.100000e-02;fill-rule:evenodd;clip-rule:evenodd;fill:#666E76;enable-background:new    ;}
	.st1{opacity:5.900000e-02;fill-rule:evenodd;clip-rule:evenodd;fill:#666E76;enable-background:new    ;}
	.st2{display:none;}
	.st3{display:inline;}
	.st4{fill:#E82547;}
</style>
<g id="Layer_1">
	<path class="st0" d="M0,36.7c0,0-3.5-44.4,68-27c11.7,2.4,46.7,18.8,27,43c0,0-26.2,11.4-30,27c0,0-4.8,13.1-26,8
		C39,87.7,3,74.4,0,36.7z"/>
	<path class="st1" d="M47.1,0c0,0-34.4,0.5-32,54c0,0,3.4,28.1,23,28c0,0,8.9-6.8,17-3s29,6,29,6s14.4,0.1,14-22S78.9,3.7,47.1,0z"
		/>
</g>
<g id="Layer_2" class="st2">
	<g id="XMLID_7_" class="st3">
		<path id="XMLID_8_" class="st4" d="M47.2,21.4c-2.7,1.9-5.7,4-7.3,7.5C37.1,35.1,45.6,41.7,46,42c0.1,0.1,0.2,0.1,0.3,0.1
			c0.1,0,0.2,0,0.3-0.1c0.2-0.1,0.2-0.4,0.1-0.6c0-0.1-3.1-6-3-10.3c0-1.5,2.1-3.2,4.3-5c2-1.6,4.3-3.5,5.7-5.7
			c2.9-4.8-0.3-9.5-0.4-9.5c-0.1-0.2-0.4-0.2-0.6-0.2c-0.2,0.1-0.3,0.3-0.3,0.5c0,0,0.6,3.1-1.1,6.3C50.6,19,49,20.1,47.2,21.4z"/>
		<path id="XMLID_9_" class="st4" d="M58.4,23.6c0.2-0.1,0.2-0.4,0.1-0.6c-0.1-0.2-0.4-0.3-0.6-0.2c-0.5,0.2-11.1,4.3-11.1,9.2
			c0,3.4,1.5,5.2,2.5,6.5c0.4,0.5,0.8,1,0.9,1.3c0.3,1.1-0.5,3.1-0.8,3.7c-0.1,0.2,0,0.4,0.1,0.6c0.1,0.1,0.2,0.1,0.3,0.1
			c0.1,0,0.2,0,0.3-0.1c0.2-0.1,4.5-3.2,3.7-6.8c-0.3-1.4-1-2.4-1.6-3.3c-0.9-1.4-1.6-2.4-0.6-4.2C52.9,27.7,58.3,23.6,58.4,23.6z"
			/>
		<path id="XMLID_10_" class="st4" d="M30.7,44.3c-0.2,0.5-0.1,1.1,0.2,1.6c1.2,1.6,5.2,2.5,11.5,2.5c0,0,0,0,0,0c0.8,0,1.7,0,2.7,0
			c10-0.4,13.7-3.5,13.9-3.6c0.2-0.1,0.2-0.4,0.1-0.6c-0.1-0.2-0.3-0.3-0.5-0.2c-3.5,1-10.1,1.3-14.7,1.3c-5.1,0-7.7-0.4-8.3-0.6
			c0.3-0.4,2.3-1.2,4.8-1.7c0.2,0,0.4-0.3,0.4-0.5s-0.2-0.4-0.5-0.4C38.8,41.9,31.5,42,30.7,44.3z"/>
		<path id="XMLID_11_" class="st4" d="M64.2,41.1c-2.1,0-4,1-4.1,1.1c-0.2,0.1-0.3,0.3-0.2,0.5c0.1,0.2,0.2,0.4,0.5,0.4
			c0,0,4.4,0,4.8,2.5c0.3,2.1-4.1,5.6-5.9,6.8C59,52.5,59,52.7,59.1,53c0.1,0.2,0.2,0.3,0.4,0.3c0,0,0.1,0,0.1,0
			c0.4-0.1,10.2-2.2,9.1-7.9C68.1,41.8,65.9,41.1,64.2,41.1z"/>
		<path id="XMLID_12_" class="st4" d="M57.5,51.7c0-0.2,0-0.4-0.2-0.5L55,49.6c-0.1-0.1-0.3-0.1-0.4-0.1c0,0-2.5,0.6-6,1
			c-1.4,0.2-3,0.2-4.6,0.2c-3.5,0-5.9-0.4-6.2-0.7c0-0.1,0-0.1,0-0.1c0.1-0.2,0.4-0.4,0.6-0.5c0.2-0.1,0.4-0.3,0.3-0.6
			c-0.1-0.2-0.3-0.4-0.6-0.3c-2.3,0.6-3.5,1.4-3.4,2.4c0.1,1.8,4.2,2.7,7.7,2.9c0.5,0,1,0.1,1.6,0.1c0,0,0,0,0,0
			c5.7,0,13.1-1.8,13.2-1.8C57.3,52,57.5,51.9,57.5,51.7z"/>
		<path id="XMLID_13_" class="st4" d="M39.9,55.5c0.2-0.1,0.3-0.3,0.2-0.5c-0.1-0.2-0.3-0.3-0.5-0.3c-0.3,0-3.1,0.1-3.3,1.9
			c-0.1,0.5,0.1,1,0.4,1.4c1,1.2,3.7,1.9,8.2,2.1c0.5,0,1.1,0,1.6,0c5.7,0,9.6-1.8,9.8-1.9c0.2-0.1,0.3-0.2,0.3-0.4
			c0-0.2-0.1-0.3-0.2-0.4l-3-1.8c-0.1-0.1-0.2-0.1-0.3-0.1c0,0-1.9,0.4-4.7,0.8c-0.5,0.1-1.2,0.1-2,0.1c-2.8,0-6-0.5-6.6-0.8
			C39.8,55.6,39.8,55.5,39.9,55.5z"/>
		<path id="XMLID_14_" class="st4" d="M43.9,65.5c13.1,0,20.2-2.3,21.6-3.8c0.5-0.5,0.5-1,0.5-1.3c-0.1-0.8-0.8-1.3-0.9-1.3
			c-0.2-0.1-0.5-0.1-0.6,0.1c-0.2,0.2-0.2,0.4,0,0.6c0.1,0.1,0.1,0.3-0.1,0.5c-0.5,0.5-6,2-15.1,2.5c-1.2,0.1-2.6,0.1-3.9,0.1
			c-8.2,0-14.1-1.1-14.9-1.8c0.3-0.4,2.4-1.1,4.7-1.5c0.3,0,0.4-0.3,0.4-0.5c0-0.3-0.3-0.4-0.5-0.4c-0.1,0-0.3,0-0.5,0
			c-3.7,0.2-8,0.7-8.2,2.6c-0.1,0.6,0.1,1.1,0.5,1.6C27.6,64,30.5,65.5,43.9,65.5C43.9,65.5,43.9,65.5,43.9,65.5z"/>
		<path id="XMLID_15_" class="st4" d="M68,62.1c-0.2-0.1-0.4,0-0.5,0.1c0,0-2,2.1-7.9,3.3c-2.3,0.5-6.5,0.7-12.7,0.7
			c-6.2,0-12-0.2-12.1-0.2c-0.2,0-0.5,0.2-0.5,0.4c0,0.2,0.1,0.5,0.4,0.5c0.1,0,6.2,1.5,14.6,1.5c4,0,7.9-0.3,11.6-1
			c6.9-1.2,7.4-4.6,7.4-4.8C68.3,62.4,68.2,62.2,68,62.1z"/>
	</g>
</g>
<g id="Layer_3">
	<g>
		<path class="st4" d="M72.4,31.2h-8v-8c0-4.6-3.8-8.4-8.4-8.4h-7.9c-4.6,0-8.4,3.8-8.4,8.4v8h-8c-4.6,0-8.4,3.8-8.4,8.4v7.9
			c0,4.6,3.8,8.4,8.4,8.4h8v8c0,4.6,3.8,8.4,8.4,8.4H56c4.6,0,8.4-3.8,8.4-8.4v-8h8c4.6,0,8.4-3.8,8.4-8.4v-7.9
			C80.9,35,77.1,31.2,72.4,31.2z M31.8,52.5c-2.8,0-5.1-2.3-5.1-5.1v-7.9c0-2.8,2.3-5.1,5.1-5.1h20.3c0.9,0,1.7-0.8,1.7-1.7
			c0-0.9-0.8-1.7-1.7-1.7h-9v-8c0-2.8,2.3-5.1,5.1-5.1H56c2.8,0,5.1,2.3,5.1,5.1v18.6H41.4c-0.9,0-1.7,0.8-1.7,1.7v9H31.8z
			 M77.5,47.5c0,2.8-2.3,5.1-5.1,5.1H52.1c-0.9,0-1.7,0.8-1.7,1.7c0,0.9,0.8,1.7,1.7,1.7h9v8c0,2.8-2.3,5.1-5.1,5.1h-7.9
			c-2.8,0-5.1-2.3-5.1-5.1V45.2h19.7c0.9,0,1.7-0.8,1.7-1.7v-9h8c2.8,0,5.1,2.3,5.1,5.1V47.5z"/>
		<path class="st4" d="M49.9,24.9c0,0.9-0.8,1.7-1.7,1.7s-1.7-0.8-1.7-1.7c0-0.9,0.8-1.7,1.7-1.7S49.9,24,49.9,24.9z"/>
		<path class="st4" d="M57.7,62.2c0,0.9-0.8,1.7-1.7,1.7c-0.9,0-1.7-0.8-1.7-1.7c0-0.9,0.8-1.7,1.7-1.7C57,60.5,57.7,61.3,57.7,62.2
			z"/>
	</g>
</g>
</svg>
