<?xml version="1.0" encoding="utf-8"?>
<!-- Generator: Adobe Illustrator 25.4.1, SVG Export Plug-In . SVG Version: 6.00 Build 0)  -->
<svg version="1.1" id="Layer_1" xmlns="http://www.w3.org/2000/svg" xmlns:xlink="http://www.w3.org/1999/xlink" x="0px" y="0px"
	 width="89.6px" height="29.2px" viewBox="0 0 89.6 29.2" style="enable-background:new 0 0 89.6 29.2;" xml:space="preserve">
<style type="text/css">
	.st0{fill:#7A7A7A;}
</style>
<g transform="translate(0.000000,256.000000) scale(0.100000,-0.100000)">
	<path class="st0" d="M6.6,2558.1c-1.7-1.1-3.9-3.3-5-5c-1.8-3.1-1.9-5-1.9-71.9c0-66.9,0.1-68.8,1.9-71.9c3.6-5.8,6.7-6.9,19.6-6.9
		h11.4l-4.5-3.9c-7-6.2-8.6-10.2-8.6-21c0-7.7,0.3-9.8,2.1-13.3c1.2-2.3,2.1-4.3,1.9-4.5c-0.2-0.1-3.2-1.2-6.7-2.3
		c-8-2.7-12.1-5.4-14.6-9.7c-1.7-2.9-2.1-5.4-2.3-16.6c-0.4-11.6-0.2-13.5,1.3-15.2c1.6-1.8,4.1-1.8,121.5-1.8s119.8,0,121.5,1.8
		c1.5,1.6,1.7,3.6,1.3,15.2c-0.2,11.2-0.6,13.7-2.3,16.6c-2.5,4.3-6.6,7-14.6,9.7c-3.6,1.2-6.5,2.2-6.7,2.3
		c-0.2,0.2,0.7,2.2,1.9,4.5c1.8,3.5,2.1,5.6,2.1,13.3c0,10.9-1.6,14.8-8.6,21l-4.5,3.9h11.4c12.9,0,16,1.2,19.6,6.9
		c1.8,3.1,1.9,5,1.9,71.9c0,66.9-0.1,68.8-1.9,71.9c-1.1,1.7-3.3,3.9-5,5c-3.1,1.9-5.1,1.9-116.1,1.9S9.6,2560,6.6,2558.1z
		 M210.1,2496.7c0-47.6,0.2-53.9,1.5-55.3c1.9-1.9,4.6-1.9,6.5,0c1.3,1.3,1.5,7.7,1.5,55.3v53.7h7c4.1,0,7.5-0.5,8.2-1.2
		c1.6-1.6,1.6-134.4,0-136.1c-0.9-0.9-24.5-1.2-100.4-1.2H35.2v52.1c0,47.1-0.2,52.2-1.6,53.8c-1.9,2.1-3.9,2.2-6.2,0.1
		c-1.6-1.4-1.7-4.4-1.7-53.8V2412h-7c-4.1,0-7.5,0.5-8.2,1.2c-1.6,1.6-1.6,134.4,0,136.1c0.9,0.9,24.5,1.2,100.4,1.2h99.3V2496.7z
		 M106.9,2398.5c-7-6.2-8.6-10.2-8.6-21c0-7.7,0.3-9.8,2.1-13.3c1.2-2.3,2.1-4.3,1.9-4.5c-0.2-0.1-2.7-1-5.6-1.9
		c-2.9-0.9-7.1-2.7-9.3-3.8l-4.1-2.3l-4,2.3c-2.3,1.2-6.5,3-9.4,3.8c-2.9,1-5.4,1.8-5.6,1.9c-0.2,0.2,0.7,2.2,1.9,4.5
		c1.8,3.5,2.1,5.6,2.1,13.3c0,10.9-1.6,14.8-8.6,21l-4.5,3.9h28.2h28.2L106.9,2398.5z M185.7,2398.5c-7-6.2-8.6-10.2-8.6-21
		c0-7.7,0.3-9.8,2.1-13.3c1.2-2.3,2.1-4.3,1.9-4.5c-0.2-0.1-2.7-1-5.6-1.9c-2.9-0.9-7.1-2.7-9.3-3.8l-4.1-2.3l-4,2.3
		c-2.3,1.2-6.5,3-9.4,3.8c-2.9,1-5.4,1.8-5.6,1.9c-0.2,0.2,0.7,2.2,1.9,4.5c1.8,3.5,2.1,5.6,2.1,13.3c0,10.9-1.6,14.8-8.6,21
		l-4.5,3.9H162h28.2L185.7,2398.5z M51.5,2392.6c5.9-4,7.2-6.8,7.2-15c0-5.5-0.5-8.2-1.7-10.3c-6.1-10-20.3-10-26.3,0
		c-2.6,4.3-2.5,16.6,0.3,20.4c3.4,4.6,7.9,7,12.9,7C46.9,2394.7,49.3,2394,51.5,2392.6z M130.3,2392.6c5.9-4,7.2-6.8,7.2-15
		c0-5.5-0.5-8.2-1.7-10.3c-6.1-10-20.3-10-26.3,0c-2.6,4.3-2.5,16.6,0.3,20.4c3.4,4.6,7.9,7,12.9,7
		C125.7,2394.7,128.1,2394,130.3,2392.6z M209.1,2392.6c5.9-4,7.2-6.8,7.2-15c0-5.5-0.5-8.2-1.7-10.3c-6.1-10-20.3-10-26.3,0
		c-2.6,4.3-2.5,16.6,0.3,20.4c3.4,4.6,7.9,7,12.9,7C204.5,2394.7,206.9,2394,209.1,2392.6z M35.9,2351.4c3.7-1.3,11.7-1.3,16,0
		c3.7,1.2,5.7,0.9,18.7-3.9c6.6-2.5,7.9-4.9,7.9-15.7v-8.2H43.8H9.3v8.2c0,12.8,0.3,13.1,16.3,18.6
		C31.9,2352.6,32.4,2352.7,35.9,2351.4z M114.7,2351.4c3.7-1.3,11.7-1.3,16,0c3.7,1.2,5.7,0.9,18.7-3.9c6.6-2.5,7.9-4.9,7.9-15.7
		v-8.2h-34.6H88v8.2c0,12.8,0.3,13.1,16.3,18.6C110.7,2352.6,111.2,2352.7,114.7,2351.4z M193.5,2351.4c3.7-1.3,11.7-1.3,16,0
		c3.7,1.2,5.7,0.9,18.7-3.9c6.6-2.5,7.9-4.9,7.9-15.7v-8.2h-34.6h-34.6v8.2c0,12.8,0.3,13.1,16.3,18.6
		C189.5,2352.6,190,2352.7,193.5,2351.4z"/>
	<path class="st0" d="M26.7,2536.7c-1.4-1.4-1.4-4.9,0-6.3c0.7-0.7,2.3-1.2,3.7-1.2c3,0,4.8,1.6,4.8,4.3s-1.8,4.3-4.8,4.3
		C29,2537.9,27.4,2537.4,26.7,2536.7z"/>
	<path class="st0" d="M112.6,2533.1c-19-4.2-33.8-17.3-40.1-35.4c-3.1-9.1-3.1-23.9,0-33.1c5.4-15.8,17.3-27.7,33.4-33.6
		c8.2-3,25.3-3,33.4,0c16.1,6,28.1,17.9,33.4,33.6c3.1,9.1,3.1,23.9,0,33.1c-5.5,15.8-17.6,28-33.4,33.5
		C132.9,2533.5,118.7,2534.4,112.6,2533.1z M130.4,2523.5c22.6-4.3,38.3-26.4,34.7-48.6c-3.1-18.8-17.3-33.1-36.1-36.1
		c-27.8-4.6-53.4,21-48.8,48.8C84.2,2511.8,106.8,2527.9,130.4,2523.5z"/>
	<path class="st0" d="M108.3,2505.1c-1.2-1.1-2.5-3.1-3.1-4.4c-1.2-3.1-1.2-35.9,0-39c1.6-4.1,4.9-6.4,9.2-6.4
		c4.1,0,4.2,0.1,26.7,14.3c6.4,4.1,9.3,7.7,9.3,11.6s-2.9,7.5-9.3,11.6c-22.5,14.2-22.6,14.3-26.7,14.3
		C111.8,2507.1,109.9,2506.5,108.3,2505.1z M128.4,2489.7c6.8-4.4,12.5-8.2,12.5-8.5c0-0.8-24.8-16.3-25.9-16.3c-0.6,0-1,5.8-1,16.3
		c0,10.6,0.4,16.3,1,16.3C115.5,2497.5,121.6,2494,128.4,2489.7z"/>
	<path class="st0" d="M211.6,2429.7c-0.9-0.8-1.5-2.2-1.5-3.2c0-2,2.9-4.9,5-4.9c1.8,0,4.6,3.1,4.6,5.1c0,2-2.6,4.5-4.8,4.5
		C213.9,2431.2,212.4,2430.6,211.6,2429.7z"/>
</g>
<g transform="translate(0.000000,256.000000) scale(0.100000,-0.100000)">
	<path class="st0" d="M348.3,2557.6c-2.7-2.7-3.7-6.1-3.7-13v-4.6l-11.4-0.4c-10.8-0.3-11.7-0.5-15.4-3.1c-2.5-1.6-4.9-4.5-6.5-7.6
		l-2.4-4.9v-93.9c0-82.6,0.2-94.3,1.4-97.5c1.9-4.5,4.8-7.6,9.4-9.9c3.5-1.7,7.3-1.8,112.7-1.8s109.2,0.1,112.7,1.8
		c6.4,3.3,10.8,10,10.8,16.3c0,4.1-27.8,185.8-28.8,188.5c-1.4,4-6.1,8.7-10.2,10.5c-3.2,1.4-6.4,1.8-17.6,1.8h-13.8v7.3
		c0,6.8-0.2,7.5-2.8,10.1c-2.4,2.3-3.7,2.8-7.6,2.8c-3.9,0-5.2-0.5-7.3-2.5c-2.3-2.3-2.5-3.3-2.5-10.1v-7.6h-19.7h-19.7l-0.4,7.8
		c-0.3,7.1-0.6,8-3,10.1c-2,1.7-3.9,2.3-7.3,2.3c-7.7,0-10.7-4.5-10.7-16.1v-4.1h-19.3h-19.3v6.3c0,10.3-2.9,14-10.9,14
		C351.6,2560,350.1,2559.4,348.3,2557.6z M357.6,2534.9v-17.8h-2.4h-2.4l-0.3,16.9c-0.1,9.3,0,17.4,0.3,18.1c0.3,0.7,1.4,1.2,2.6,1
		C357.6,2552.8,357.6,2552.7,357.6,2534.9z M417.8,2551.9c0.8-0.9,1.1-6.4,0.9-17.5c-0.3-13.7-0.6-16.3-1.8-17.2
		c-0.9-0.6-2.3-0.7-3.2-0.4c-1.4,0.6-1.5,2.8-1.5,17.8c0,9.5,0.3,17.6,0.7,17.8C413.8,2553.7,416.6,2553.3,417.8,2551.9z
		 M477.5,2552.1c1.4-1.4,1.6-32.3,0.3-34.3c-0.4-0.8-1.8-1.2-3.1-1l-2.3,0.3l-0.3,16.9c-0.1,9.3,0,17.4,0.2,18
		C473,2553.5,476,2553.6,477.5,2552.1z M344.6,2528.2c0-3.6-0.6-5.7-2.1-7.8c-3.3-4.4-3-12.1,0.6-16.7c3.3-4.4,7.1-6.4,12.2-6.4
		c9.3,0,16.1,7.3,15.2,16.3c-0.3,2.6-1.4,6-2.5,7.6c-1.4,1.9-2.1,4.3-2.1,7.3v4.4h19.3h19.3v-4.8c0-3.4-0.6-5.7-1.9-7.5
		c-3.1-4.2-3.4-9.6-0.8-14.7c3.3-6.4,7.6-9,14.4-8.5c6.4,0.5,10.5,3.1,12.9,8.1c2.1,4.5,1.5,12-1.4,15.8c-1.4,1.9-2,4.2-2,7.2v4.3
		l19.6-0.2l19.5-0.3l0.3-3.6c0.2-2.6-0.5-4.9-2.3-8.1c-8.1-13.9,5.1-28.7,19.5-22c4.8,2.3,7.4,6.6,7.9,12.8c0.3,4.6,0,6-2.1,9.1
		c-1.8,2.6-2.5,4.9-2.5,8v4.4l13.3-0.4c11-0.2,13.7-0.6,16.3-2.2c5.5-3.3,6.1-5.8,6.1-27.4v-19.4H418.9H316.6v20.7v20.6l3.4,3.4
		c3.9,3.9,4.8,4.1,16.2,4.3l8.4,0.1V2528.2z M349.9,2510.8c0.8-1.3,8.8-1.3,11.2,0c1.4,0.8,1.8,0.7,1.8-0.2c0-2.4-2.9-5.4-5.7-6.1
		c-4.1-0.9-9.6,2.5-9.7,6.1C347.5,2512,349,2512.2,349.9,2510.8z M415.7,2509.8c2.6,0,5.2,0.5,5.9,1.2c1.7,1.7,2.2,0.5,0.9-2.1
		c-2.5-5.1-9.3-6-13.2-1.7c-2.6,2.8-2.6,5.1-0.1,3.7C410.2,2510.3,413.2,2509.8,415.7,2509.8z M469.5,2510.8c0.3-0.5,2.9-1,5.8-1
		c2.9,0,5.5,0.5,5.8,1c1.1,1.6,2.2,1.1,1.7-0.9c-0.7-2.7-3.3-4.8-6.8-5.5c-2.5-0.5-3.5-0.1-6,2.3c-2.9,2.9-3.8,5-2,5
		C468.5,2511.8,469.2,2511.4,469.5,2510.8z M521.1,2473.2v-2.9h-47.9c-26.4,0-49-0.3-50.2-0.6c-2.6-0.7-3.5-2.8-2.2-5.3
		c1-1.7,2.6-1.8,50.6-1.8h49.7v-29.9c0-29.4,0-29.8,2-31c1.6-0.9,2.4-0.8,3.7,0.5c1.4,1.4,1.6,5.7,2,33.2l0.5,31.4l9.5-61.6
		c5.2-34,9.5-63.8,9.4-66.2c0-3.4-0.6-5.1-2.4-7c-3.3-3.6-6.3-4.4-14.5-4.4h-7.1l2.1,3.6c2,3.5,2.1,4.8,2.4,29.9
		c0.4,27.1,0,30.2-3.5,30.2c-3.9,0-4.1-1.4-4.1-28.3c0-24.4-0.1-26.2-1.9-29.1c-4.1-6.7,1.4-6.3-100.8-6.3
		c-100.5,0-95.3-0.3-99.7,5.4c-2,2.5-2,3.2-2,66.1v63.6h45.6c34.2,0,45.9,0.3,46.8,1.2c1.7,1.7,1.4,4.4-0.7,5.6
		c-1.3,0.6-17.7,1-46.8,1h-45v2.9v2.9h102.2h102.2V2473.2z"/>
	<path class="st0" d="M377.7,2443.7c-1.6-0.8-1.5-4.7,0.1-6.1c0.9-0.7,4.1-1.1,8.4-0.9c5.3,0.2,7.1,0.7,8,2c0.8,1.2,0.8,2.1,0,3.4
		c-0.9,1.3-2.6,1.6-8.2,1.8C382,2444.1,378.3,2443.9,377.7,2443.7z"/>
	<path class="st0" d="M410.4,2443.1c-1.7-1.7-1.4-4.4,0.7-5.6c3.1-1.5,14.2-1.3,15.9,0.6c1.9,1.8,1.9,2.8,0,4.6
		C425.1,2444.6,412.2,2444.9,410.4,2443.1z"/>
	<path class="st0" d="M443.6,2442.7c-0.9-0.8-1.5-1.8-1.5-2.3c0-0.5,0.7-1.5,1.5-2.3c1.7-1.8,12.8-2.1,15.9-0.6
		c2,1.2,2.4,3.9,0.7,5.6C458.3,2444.9,445.4,2444.6,443.6,2442.7z"/>
	<path class="st0" d="M476.9,2443.1c-0.6-0.6-1.2-1.9-1.2-2.8c0-3,2.4-3.9,9.7-3.6c5.3,0.2,7.1,0.7,8,2c0.8,1.2,0.8,2.1,0,3.4
		C492.2,2444.2,478.9,2445,476.9,2443.1z"/>
	<path class="st0" d="M345.4,2414.6c-2.1-0.6-3.2-3.9-1.7-5.6c1.5-1.8,15.4-2,17.2-0.3c1.9,1.9,1.4,4.6-1.4,5.6
		C357,2415.3,348.4,2415.5,345.4,2414.6z"/>
	<path class="st0" d="M378.2,2414.2c-2.1-1.3-2.2-5.3-0.2-6.1c1.9-0.8,13.3-0.8,15.2,0c2.1,0.9,1.9,4.9-0.3,6.2
		C390.5,2415.6,380.3,2415.6,378.2,2414.2z"/>
	<path class="st0" d="M411.4,2414.3c-2.4-1-2.9-3.8-1.1-5.6c0.7-0.7,4.1-1.2,8.7-1.2c6.7,0,7.6,0.2,8.6,2.1c1,1.7,0.8,2.3-1.1,3.9
		C424.3,2415.5,415.4,2415.9,411.4,2414.3z"/>
	<path class="st0" d="M444.7,2414.6c-2.1-0.6-2.9-2.9-1.7-5.2c0.9-1.5,2.1-1.8,8.5-1.8c4.5,0,8,0.5,8.7,1.2c1.9,1.9,1.4,4.6-1.4,5.6
		C456.4,2415.3,447.8,2415.5,444.7,2414.6z"/>
	<path class="st0" d="M477.5,2414.2c-2.1-1.3-2.2-5.3-0.2-6.1c1.9-0.8,13.3-0.8,15.2,0c2.1,0.9,1.9,4.9-0.3,6.2
		C489.9,2415.6,479.6,2415.6,477.5,2414.2z"/>
	<path class="st0" d="M343.5,2383.9c-0.9-1.1-1-1.9-0.2-3.1c1.4-2.4,16.5-2.4,17.9,0c0.8,1.2,0.7,2-0.2,3.1
		C359.2,2386.1,345.4,2386.1,343.5,2383.9z"/>
	<path class="st0" d="M376.8,2384.1c-0.3-0.8-0.4-2.2-0.2-3.2c0.3-1.5,1.4-1.7,9-1.7h8.7v2.9v2.9l-8.5,0.3
		C379,2385.4,377.3,2385.2,376.8,2384.1z"/>
	<path class="st0" d="M409.7,2384.4c-0.4-0.6-0.4-2.1-0.1-3.5c0.6-2.2,1-2.3,8.7-2.3c6.2,0,8.4,0.4,9.4,1.5c0.9,1.1,1,1.9,0.2,3.1
		c-0.8,1.3-2.8,1.7-9.3,1.9C413.4,2385.4,410.1,2385.1,409.7,2384.4z"/>
	<path class="st0" d="M442.9,2383.9c-0.9-1.1-1-1.9-0.2-3.1c0.8-1.3,2.7-1.7,8.7-1.9c8.4-0.3,10.7,0.8,9.5,4.6
		c-0.6,1.7-1.4,1.9-8.6,1.9C446.1,2385.4,443.8,2385,442.9,2383.9z"/>
	<path class="st0" d="M476.2,2384.1c-0.3-0.8-0.4-2.2-0.2-3.2c0.3-1.5,1.4-1.7,9-1.7h8.7v2.9v2.9l-8.5,0.3
		C478.4,2385.4,476.6,2385.2,476.2,2384.1z"/>
	<path class="st0" d="M343.6,2355c-1.5-1.8-0.4-5,2.2-5.7c1.2-0.3,4.1-0.6,6.5-0.6c6,0,8.5,0.9,9.2,3.1c1.2,3.5-1.2,4.6-9.2,4.6
		C346.9,2356.5,344.5,2356.1,343.6,2355z"/>
	<path class="st0" d="M377.1,2355.8c-0.4-0.3-0.7-1.6-0.7-2.9c0-2.7,3.1-4.1,9.2-4.1s9.2,1.4,9.2,4.2c0,1.3-0.7,2.6-1.5,2.9
		C391.2,2356.7,377.9,2356.7,377.1,2355.8z"/>
	<path class="st0" d="M410.4,2355.3c-3.9-3.9,0.9-6.9,9.7-6.4c6.7,0.5,9.2,2.3,7.5,5.5c-1,1.8-2,2-8.6,2
		C414.5,2356.5,411,2356,410.4,2355.3z"/>
	<path class="st0" d="M442.9,2354.3c-1.7-3.2,1.8-5.6,8.3-5.6c6.5,0,10.1,1.4,10.1,3.7c0,3.2-2,4.1-9.8,4.1
		C444.8,2356.5,443.8,2356.3,442.9,2354.3z"/>
</g>
<g transform="translate(0.000000,256.000000) scale(0.100000,-0.100000)">
	<path class="st0" d="M623,2558.8c-9.6-2.8-18.6-10.8-23.5-21l-3.1-6.5v-85.1v-85.1l3.1-6.5c4-8.3,10.5-14.8,18.6-18.7l6.6-3.1
		l69.5-0.4c67.7-0.2,69.5-0.2,76,2.1c9,3.4,17.1,11.2,21.3,20.1c2.9,6.6,3.3,9,3.8,23.2c0.6,17.4-0.2,21.8-4.6,23.5
		c-2.9,1.1-8-0.4-9.4-2.6c-0.5-0.8-0.9-7.7-0.9-15.6c0-21.3-2.9-28.3-13.7-33.8c-3.5-1.8-10.8-1.9-72.3-1.6l-68.5,0.4l-4.2,2.8
		c-2.2,1.5-5.4,4.7-6.9,6.9l-2.8,4.2v84.1v84.1l2.8,4.2c1.5,2.2,4.7,5.4,6.9,6.9l4.2,2.8l68.5,0.4c66.2,0.2,68.6,0.2,73-2
		c5.6-2.9,10.2-8.3,11.9-14c0.6-2.3,1.2-11,1.2-19.1c0-13.2,0.2-15,2.3-16.9c2.8-2.6,7.9-2.7,10.3-0.1c1.6,1.6,2,4.7,2,19.8
		c-0.1,17.1-0.2,18.2-3.5,25.2c-4.1,9-12.2,16.8-21.3,20.1c-6.2,2.3-8.6,2.5-74.8,2.3C655.2,2560,625.4,2559.4,623,2558.8z"/>
	<path class="st0" d="M832.5,2502.6c-4.6-5-3.2-7.3,17.5-28.1c10.7-10.7,19.5-20,19.5-20.4s-32.2-0.8-71.4-0.8
		c-67.7,0-71.6-0.1-73.4-2.1c-2.6-2.8-2.5-7.6,0.1-10c2-1.8,8.8-2,73.4-2c39.2,0,71.3-0.4,71.3-0.8s-8.7-9.6-19.3-20.3
		c-10.6-10.7-19.6-20.4-20-21.8c-1.1-3.5,3.3-8.7,7.4-8.7c2.5,0,8.3,5.2,31,27.9c20.9,20.9,27.8,28.6,27.8,30.8s-6.9,9.9-27.8,30.8
		C839,2506.5,837.3,2507.8,832.5,2502.6z"/>
</g>
</svg>
