<?xml version="1.0" encoding="utf-8"?>
<!-- Generator: Adobe Illustrator 25.2.1, SVG Export Plug-In . SVG Version: 6.00 Build 0)  -->
<svg version="1.1" id="Layer_1" xmlns="http://www.w3.org/2000/svg" xmlns:xlink="http://www.w3.org/1999/xlink" x="0px" y="0px"
	 width="61px" height="19px" viewBox="0 0 61 19" style="enable-background:new 0 0 61 19;" xml:space="preserve">
<style type="text/css">
	.st0{fill:#E8505B;}
	.st1{fill:#FFFFFF;}
</style>
<g>
	<path class="st0" d="M53.7,3.3c-1-2-3-3.3-5.2-3.3c-3.2,0-5.8,2.6-5.8,5.8c0,0.9,0.2,1.7,0.6,2.5L42.8,11c-0.1,0.3,0.2,0.7,0.6,0.6
		l2.8-0.5c0.4,0.2,0.8,0.3,1.2,0.4C46.3,7.3,49.5,3.4,53.7,3.3z"/>
	<path class="st0" d="M59.1,12.6c0.1-0.2,0.2-0.4,0.2-0.6l0,0c1.2-3.6-1.4-7.5-5.2-7.7l0,0C50.8,4.2,48,6.8,48,10.1
		c0,3.2,2.6,5.8,5.8,5.8c0.9,0,1.7-0.2,2.5-0.6c3,0.6,2.8,0.6,2.9,0.6c0.3,0,0.5-0.3,0.5-0.6L59.1,12.6z"/>
</g>
<g id="Page-1">
	<g id="_x30_03---Call" transform="translate(-1)">
		<path id="Shape" class="st0" d="M7.8,10.7c-1.6-1.6-2-3.2-2.1-3.9c0-0.2,0-0.4,0.2-0.5L7.2,5c0.2-0.2,0.2-0.5,0.1-0.7L5.1,1
			C5,0.8,4.6,0.7,4.4,0.8L1,2.5C0.8,2.6,0.7,2.8,0.7,3c0.2,1.7,1,5.8,5.1,9.8s8.2,4.7,9.9,4.8c0.2,0,0.5-0.1,0.6-0.3l1.5-3.4
			c0.1-0.3,0-0.6-0.2-0.8L14.3,11c-0.3,0-0.6,0-0.8,0.2l-1.3,1.3c-0.1,0.1-0.3,0.2-0.5,0.2C11.1,12.6,9.5,12.3,7.8,10.7L7.8,10.7z"
			/>
		<path id="Shape_1_" class="st0" d="M14.3,9.7c-0.3,0-0.6-0.3-0.6-0.6c0-2.4-2-4.4-4.4-4.3C9,4.8,8.7,4.5,8.7,4.2S9,3.6,9.3,3.6
			c3.1,0,5.6,2.4,5.6,5.5C14.9,9.5,14.6,9.7,14.3,9.7z"/>
		<path id="Shape_2_" class="st0" d="M17.2,9.7c-0.3,0-0.6-0.3-0.6-0.6c-0.1-4-3.4-7.3-7.4-7.2c-0.3,0-0.6-0.3-0.6-0.6
			s0.3-0.6,0.6-0.6c4.7-0.1,8.5,3.7,8.6,8.4c0,0.2-0.1,0.3-0.2,0.4S17.4,9.7,17.2,9.7z"/>
	</g>
</g>
<g>
	<g>
		<g>
			<path class="st1" d="M34.4,3.5c0-0.4-0.2-0.8-0.4-1.1L32.5,1c-0.3-0.3-0.7-0.4-1.1-0.4h-0.1v3L34.4,3.5L34.4,3.5L34.4,3.5z"/>
		</g>
	</g>
	<g>
		<g>
			<path class="st1" d="M30.5,10.9c0.1-0.3,0.3-0.6,0.5-0.8l3.4-3.4V4.6h-3.5c-0.3,0-0.5-0.2-0.5-0.5V0.6h-7.5
				c-0.8,0-1.5,0.7-1.5,1.5v14c0,0.8,0.7,1.5,1.5,1.5h9.9c0.8,0,1.5-0.7,1.5-1.5v-3.7l-0.5,0.5c-0.2,0.2-0.5,0.4-0.8,0.5l-1.6,0.5
				h-0.2c-0.4,0-0.8-0.2-1-0.5s-0.3-0.7-0.2-1.1L30.5,10.9z M23.9,9.5h5c0.3,0,0.5,0.2,0.5,0.5s-0.2,0.5-0.5,0.5h-5
				c-0.3,0-0.5-0.2-0.5-0.5S23.6,9.5,23.9,9.5z M23.4,8c0-0.3,0.2-0.5,0.5-0.5h5c0.3,0,0.5,0.2,0.5,0.5s-0.2,0.5-0.5,0.5h-5
				C23.6,8.5,23.4,8.3,23.4,8z M23.4,12c0-0.3,0.2-0.5,0.5-0.5h5c0.3,0,0.5,0.2,0.5,0.5s-0.2,0.5-0.5,0.5h-5
				C23.6,12.5,23.4,12.3,23.4,12z M30.9,14.5c0.3,0,0.5,0.2,0.5,0.5s-0.2,0.5-0.5,0.5h-3c-0.3,0-0.5-0.2-0.5-0.5s0.2-0.5,0.5-0.5
				H30.9z M23.9,6.6c-0.3,0-0.5-0.2-0.5-0.5s0.2-0.5,0.5-0.5h7c0.3,0,0.5,0.2,0.5,0.5s-0.2,0.5-0.5,0.5H23.9z"/>
		</g>
	</g>
	<g>
		<g>
			<path class="st1" d="M31.4,11.3L31,12.6c-0.1,0.2,0.1,0.4,0.3,0.3l1.3-0.4L31.4,11.3z"/>
		</g>
	</g>
	<g>
		<g>
			<path class="st1" d="M35.3,7.2L32,10.5l1.4,1.4c0.7-0.7,2.2-2.2,3.3-3.3L35.3,7.2z"/>
		</g>
	</g>
	<g>
		<g>
			<path class="st1" d="M38.1,5.8c-0.2-0.2-0.4-0.3-0.7-0.3s-0.5,0.1-0.7,0.3L36,6.5l1.4,1.4c0.4-0.4,0.7-0.7,0.7-0.7
				C38.5,6.8,38.5,6.2,38.1,5.8z"/>
		</g>
	</g>
	<g>
		<g>
			<g>
				<path class="st1" d="M38.1,7.2L38.1,7.2L38.1,7.2L38.1,7.2z"/>
				<path class="st1" d="M38.1,7.2L38.1,7.2L38.1,7.2z"/>
				<path class="st1" d="M38.1,7.2L38.1,7.2L38.1,7.2z"/>
			</g>
		</g>
	</g>
</g>
</svg>
