<?xml version="1.0" encoding="utf-8"?>
<!-- Generator: Adobe Illustrator 23.1.0, SVG Export Plug-In . SVG Version: 6.00 Build 0)  -->
<svg version="1.1" id="Capa_1" xmlns="http://www.w3.org/2000/svg" xmlns:xlink="http://www.w3.org/1999/xlink" x="0px" y="0px"
	 width="385px" height="385px" viewBox="0 0 385 385" style="enable-background:new 0 0 385 385;" xml:space="preserve">
<style type="text/css">
	.st0{fill:#D7D7D7;}
</style>
<g>
	<g id="Double_Arrow_Up_x2F_Down">
		<path class="st0" d="M333.3,86.5l-84.2-83c-4.7-4.6-12.5-4.7-17.2,0l-84.2,83c-4.8,4.7-4.7,12.3,0,17c4.7,4.7,12.4,4.7,17.2,0
			L228.3,41v187.6c0,6.6,5.4,12,12.2,12s12.2-5.4,12.2-12V41l63.5,62.6c4.8,4.7,12.4,4.7,17.2,0C338,98.8,338,91.2,333.3,86.5z"/>
		<path class="st0" d="M220.1,281.5L156.6,344V156.4c0-6.6-5.4-12-12.2-12s-12.2,5.4-12.2,12V344l-63.5-62.6
			c-4.8-4.7-12.4-4.7-17.2,0c-4.8,4.7-4.8,12.3,0,17l84.2,83c4.7,4.6,12.5,4.7,17.2,0l84.2-83c4.8-4.7,4.7-12.3,0-17
			C232.5,276.8,224.8,276.8,220.1,281.5z"/>
	</g>
</g>
</svg>
