<svg width="36" height="33" viewBox="0 0 36 33" fill="none" xmlns="http://www.w3.org/2000/svg">
<path d="M28.7964 7.2L32.9544 0H34.2144C35.2008 0 36 0.801 36 1.7874V30.6126C35.9967 31.0853 35.8076 31.5378 35.4735 31.8722C35.1394 32.2066 34.6871 32.3962 34.2144 32.4H1.7856C1.31186 32.3995 0.857694 32.211 0.522881 31.8758C0.188068 31.5407 -2.40219e-07 31.0863 0 30.6126V1.7874C0.00329408 1.31468 0.19242 0.862231 0.526523 0.527792C0.860626 0.193352 1.31288 0.00377037 1.7856 0H7.1964L3.0384 7.2H7.1964L11.3544 0H17.9964L13.8384 7.2H17.9964L22.1544 0H28.7964L24.6384 7.2H28.7964Z" fill="#23AAE9"/>
</svg>
