<svg width="36" height="37" viewBox="0 0 36 37" fill="none" xmlns="http://www.w3.org/2000/svg">
<path fill-rule="evenodd" clip-rule="evenodd" d="M35.353 31.1909C34.2418 34.5678 29.8881 36.2519 26.7777 35.9711C22.5297 35.5871 17.9073 33.3339 14.3984 30.8523C9.24079 27.2042 4.40954 21.5613 1.59432 15.5732C-0.395294 11.342 -0.841692 6.13973 2.11753 2.2829C3.21194 0.857286 4.39515 0.0958984 6.17356 0.00709765C8.64078 -0.112903 8.98639 1.29855 9.83359 3.49697C10.4648 5.14098 11.3072 6.818 11.7776 8.52201C12.6584 11.702 9.57919 11.8349 9.19038 14.4342C8.94798 16.0734 10.9352 18.2716 11.8328 19.4405C13.592 21.7301 15.7064 23.7049 18.0921 25.2073C19.4577 26.0689 21.6633 27.6215 23.2281 26.7647C25.6377 25.4447 25.4097 21.3817 28.7793 22.7569C30.5242 23.4673 32.2138 24.4925 33.8794 25.3901C36.4546 26.7749 36.3346 28.2101 35.353 31.1909C36.0874 28.9637 34.6186 33.4182 35.353 31.1909Z" fill="#04DD20"/>
</svg>
