<svg width="24" height="24" viewBox="0 0 24 24" fill="none" xmlns="http://www.w3.org/2000/svg">
<path fill-rule="evenodd" clip-rule="evenodd" d="M12.0006 9.60028V12.0004H14.4006C14.4006 10.6743 13.3266 9.60028 12.0006 9.60028ZM12.0006 4.80014V7.20021C14.6478 7.20021 16.8007 9.35307 16.8007 12.0004H19.2008C19.2008 8.02344 15.9775 4.80014 12.0006 4.80014ZM12.0006 0V2.40007C17.2939 2.40007 21.6008 6.707 21.6008 12.0004H24.0009C24.0009 5.37256 18.6284 0 12.0006 0ZM17.5831 21.8813C17.5699 21.9185 17.5687 21.9245 17.5831 21.8813ZM16.9411 18.6943C16.1071 18.2455 15.2635 17.7341 14.391 17.3777C12.705 16.69 12.819 18.7228 11.6153 19.3816C10.8329 19.81 9.72889 19.0337 9.04607 18.6041C7.85324 17.8528 6.79601 16.8642 5.91758 15.7206C5.46757 15.1362 4.47394 14.037 4.59634 13.2174C4.79075 11.9165 6.32919 11.8513 5.88878 10.2601C5.65357 9.40804 5.23236 8.56949 4.91675 7.74866C4.49434 6.64823 4.32033 5.94369 3.08789 6.00369C2.19747 6.04689 1.60706 6.42759 1.05984 7.14162C-0.421002 9.07007 -0.197797 11.6701 0.797032 13.7858C2.20587 16.7798 4.62034 19.6026 7.19922 21.4266C8.95367 22.6674 11.2649 23.7941 13.389 23.9849C14.9442 24.1253 17.1199 23.2844 17.6767 21.5959C17.6383 21.7135 17.6011 21.8273 17.5831 21.8813C17.5963 21.8393 17.6251 21.7544 17.6767 21.5959C17.7331 21.4255 17.7607 21.3402 17.7739 21.3018C17.7571 21.3522 17.7187 21.47 17.6779 21.5924C18.1675 20.1044 18.2275 19.3867 16.9411 18.6943ZM17.7739 21.3018C17.7835 21.273 17.7835 21.2706 17.7739 21.3018Z" fill="white"/>
</svg>
