<?xml version="1.0" encoding="utf-8"?>
<!-- Generator: Adobe Illustrator 23.1.0, SVG Export Plug-In . SVG Version: 6.00 Build 0)  -->
<svg version="1.1" id="Capa_1" xmlns="http://www.w3.org/2000/svg" xmlns:xlink="http://www.w3.org/1999/xlink" x="0px" y="0px"
	 width="512px" height="512px" viewBox="0 0 512 512" style="enable-background:new 0 0 512 512;" xml:space="preserve">
<style type="text/css">
	.st0{fill:#FFFFFF;}
</style>
<g>
	<g>
		<path class="st0" d="M448,93c5.5,0,10-4.5,10-10V30c0-16.5-13.5-30-30-30H30C13.5,0,0,13.5,0,30v452c0,16.5,13.5,30,30,30h398
			c16.5,0,30-13.5,30-30v-28c0-5.5-4.5-10-10-10s-10,4.5-10,10v28c0,5.5-4.5,10-10,10H30c-5.5,0-10-4.5-10-10V30c0-5.5,4.5-10,10-10
			h398c5.5,0,10,4.5,10,10v53C438,88.5,442.5,93,448,93z"/>
	</g>
</g>
<g>
	<g>
		<path class="st0" d="M400,48H58c-5.5,0-10,4.5-10,10v209c0,5.5,4.5,10,10,10s10-4.5,10-10V68h322v16c0,5.5,4.5,10,10,10
			c5.5,0,10-4.5,10-10V58C410,52.5,405.5,48,400,48z"/>
	</g>
</g>
<g>
	<g>
		<path class="st0" d="M65.1,296.9c-1.9-1.9-4.4-2.9-7.1-2.9c-2.6,0-5.2,1.1-7.1,2.9S48,301.4,48,304s1.1,5.2,2.9,7.1
			c1.9,1.9,4.4,2.9,7.1,2.9c2.6,0,5.2-1.1,7.1-2.9c1.9-1.9,2.9-4.4,2.9-7.1S66.9,298.8,65.1,296.9z"/>
	</g>
</g>
<g>
	<g>
		<path class="st0" d="M400,422c-5.5,0-10,4.5-10,10v12H68V342.5c0-5.5-4.5-10-10-10s-10,4.5-10,10V454c0,5.5,4.5,10,10,10h342
			c5.5,0,10-4.5,10-10v-22C410,426.5,405.5,422,400,422z"/>
	</g>
</g>
<g>
	<g>
		<path class="st0" d="M309.9,353.3c-3.9-3.9-10.2-3.9-14.1,0L276,373.1l-12.3-12.3c-7.8-7.8-20.4-7.8-28.1,0l-8,8
			c-3.9,3.9-3.9,10.2,0,14.1c3.9,3.9,10.2,3.9,14.1,0l7.9-7.9l12.3,12.3c3.9,3.9,9,5.8,14.1,5.8s10.2-1.9,14.1-5.8l19.8-19.8
			C313.8,363.6,313.8,357.2,309.9,353.3z"/>
	</g>
</g>
<g>
	<g>
		<path class="st0" d="M507.4,209.8c4.4-6.9,5.7-15.3,3.6-23.2c-2.1-7.9-7.5-14.6-14.7-18.3c-3.1-1.6-5.1-5-4.9-8.5
			c0.4-8.2-2.7-16.1-8.5-21.9c-5.8-5.8-13.8-8.9-21.9-8.5c-3.6,0.2-6.9-1.8-8.5-4.9c-3.8-7.3-10.4-12.6-18.3-14.7
			c-7.9-2.1-16.4-0.8-23.2,3.6c-3,1.9-6.8,1.9-9.8,0c-6.9-4.4-15.3-5.7-23.2-3.6c-7.9,2.1-14.6,7.5-18.3,14.7
			c-1.6,3.1-5,5.1-8.5,4.9c-8.2-0.4-16.1,2.7-21.9,8.5c-5.8,5.8-8.9,13.8-8.5,21.9c0.2,3.5-1.8,6.9-4.9,8.5
			c-7.3,3.8-12.6,10.4-14.7,18.3c-1,3.8-1.2,7.7-0.7,11.4H125.8c-5.5,0-10,4.5-10,10s4.5,10,10,10h179.6c-0.2,0.5-0.5,1.1-0.8,1.6
			c-4.4,6.9-5.7,15.3-3.6,23.2c0.3,1.1,0.6,2.1,1.1,3.2H125.8c-5.5,0-10,4.5-10,10c0,5.5,4.5,10,10,10H320c0.4,1.1,0.7,2.4,0.6,3.6
			c-0.4,8.2,2.7,16.1,8.5,21.9c5.8,5.8,13.8,8.9,21.9,8.5c3.5-0.2,6.9,1.8,8.5,4.9c1.2,2.3,2.7,4.5,4.5,6.3v93.4
			c0,4,2.4,7.7,6.2,9.2c3.7,1.6,8,0.7,10.9-2.1L406,387l24.9,24.8c1.9,1.9,4.5,2.9,7.1,2.9c1.3,0,2.6-0.3,3.8-0.8
			c3.7-1.6,6.2-5.2,6.2-9.2v-93.4c1.7-1.9,3.2-4,4.5-6.3c1.6-3.1,5-5.1,8.5-4.9c8.2,0.4,16.1-2.7,21.9-8.5
			c5.8-5.8,8.9-13.8,8.5-21.9c-0.2-3.5,1.8-6.9,4.9-8.5c7.3-3.8,12.6-10.4,14.7-18.3c2.1-7.9,0.8-16.4-3.6-23.2
			C505.5,216.6,505.5,212.8,507.4,209.8z M428,380.6l-14.9-14.9c-3.9-3.9-10.2-3.9-14.1,0L384,380.6v-60c6,0.3,12-1.3,17.1-4.6
			c3-1.9,6.8-1.9,9.8,0c4.7,3,10.2,4.6,15.7,4.6c0.5,0,0.9,0,1.4,0L428,380.6L428,380.6z M491.7,237.7c-0.7,2.5-2.3,4.5-4.6,5.7
			c-10.1,5.2-16.2,15.9-15.7,27.2c0.1,2.6-0.8,5-2.7,6.9c-1.8,1.8-4.3,2.8-6.9,2.7c-11.3-0.5-22,5.6-27.2,15.7
			c-1.2,2.3-3.2,3.9-5.7,4.6c-2.5,0.7-5.1,0.3-7.3-1.1c-4.8-3.1-10.2-4.6-15.7-4.6c-5.5,0-10.9,1.5-15.7,4.6
			c-2.2,1.4-4.8,1.8-7.3,1.1c-2.5-0.7-4.5-2.3-5.7-4.6c-5.2-10.1-15.9-16.2-27.2-15.7c-2.6,0.1-5-0.8-6.9-2.7
			c-1.8-1.8-2.8-4.3-2.7-6.9c0.4-8-2.6-15.6-7.9-21.3c-0.2-0.2-0.3-0.3-0.5-0.5c-2.1-2.1-4.6-4-7.3-5.4c-2.3-1.2-3.9-3.2-4.6-5.7
			s-0.3-5.1,1.1-7.3c6.1-9.5,6.1-21.9,0-31.4c-1.4-2.2-1.8-4.8-1.1-7.3c0.7-2.5,2.3-4.5,4.6-5.7c10.1-5.2,16.2-15.9,15.7-27.2
			c-0.1-2.6,0.8-5,2.7-6.9c1.8-1.8,4.3-2.8,6.9-2.7c11.3,0.5,22-5.6,27.2-15.7c1.2-2.3,3.2-3.9,5.7-4.6c2.5-0.7,5.1-0.3,7.3,1.1
			c9.5,6.1,21.9,6.1,31.4,0c2.2-1.4,4.8-1.8,7.3-1.1c2.5,0.7,4.5,2.3,5.7,4.6c5.2,10.1,15.9,16.2,27.2,15.7c2.6-0.1,5,0.8,6.9,2.7
			c1.8,1.8,2.8,4.3,2.7,6.9c-0.5,11.3,5.6,22,15.7,27.2c2.3,1.2,3.9,3.2,4.6,5.7c0.7,2.5,0.3,5.1-1.1,7.3c-6.1,9.5-6.1,21.9,0,31.4
			C492,232.6,492.4,235.1,491.7,237.7z"/>
	</g>
</g>
<g>
	<g>
		<path class="st0" d="M453.6,187.5c-3.9-3.9-10.2-3.9-14.1,0l-33.2,33.2L393,207.5c-3.9-3.9-10.2-3.9-14.1,0
			c-3.9,3.9-3.9,10.2,0,14.1l20.3,20.3c2,2,4.5,2.9,7.1,2.9s5.1-1,7.1-2.9l40.3-40.3C457.5,197.7,457.5,191.4,453.6,187.5z"/>
	</g>
</g>
<g>
	<g>
		<path class="st0" d="M122.1,120.9c-1.9-1.9-4.4-2.9-7.1-2.9s-5.2,1.1-7.1,2.9s-2.9,4.4-2.9,7.1c0,2.6,1.1,5.2,2.9,7.1
			s4.4,2.9,7.1,2.9s5.2-1.1,7.1-2.9c1.9-1.9,2.9-4.4,2.9-7.1S123.9,122.8,122.1,120.9z"/>
	</g>
</g>
<g>
	<g>
		<path class="st0" d="M201,118h-48.7c-5.5,0-10,4.5-10,10c0,5.5,4.5,10,10,10H201c5.5,0,10-4.5,10-10S206.5,118,201,118z"/>
	</g>
</g>
<g>
	<g>
		<path class="st0" d="M302.8,294H188.5c-5.5,0-10,4.5-10,10s4.5,10,10,10h114.3c5.5,0,10-4.5,10-10S308.4,294,302.8,294z"/>
	</g>
</g>
</svg>
