<svg width="36" height="36" viewBox="0 0 36 36" fill="none" xmlns="http://www.w3.org/2000/svg">
<path d="M18 36C27.9411 36 36 27.9411 36 18C36 8.05888 27.9411 0 18 0C8.05888 0 0 8.05888 0 18C0 20.8793 0.676113 23.6009 1.87823 26.0144C2.19769 26.6559 2.30402 27.389 2.11881 28.0811L1.04672 32.0879C0.581318 33.8274 2.17263 35.4186 3.91202 34.9532L7.91889 33.8812C8.61109 33.696 9.34418 33.8024 9.98555 34.1218C12.3991 35.3239 15.1207 36 18 36Z" fill="#EAC930"/>
<path d="M16.1992 18.0002C16.1992 18.9943 17.0051 19.8002 17.9992 19.8002C18.9933 19.8002 19.7992 18.9943 19.7992 18.0002C19.7992 17.0061 18.9933 16.2002 17.9992 16.2002C17.0051 16.2002 16.1992 17.0061 16.1992 18.0002Z" fill="white"/>
<path d="M9 18.0002C9 18.9943 9.80589 19.8002 10.8 19.8002C11.7941 19.8002 12.6 18.9943 12.6 18.0002C12.6 17.0061 11.7941 16.2002 10.8 16.2002C9.80589 16.2002 9 17.0061 9 18.0002Z" fill="white"/>
<path d="M23.416 18.0168C23.416 19.0109 24.2219 19.8168 25.216 19.8168C26.2101 19.8168 27.016 19.0109 27.016 18.0168C27.016 17.0227 26.2101 16.2168 25.216 16.2168C24.2219 16.2168 23.416 17.0227 23.416 18.0168Z" fill="white"/>
</svg>
