<svg id="Layer_1" xmlns="http://www.w3.org/2000/svg" width="200" height="326" viewBox="0 0 200 326"><style>.st0{display:none}.st1{display:inline}.st2{fill:#e0e0e0}.st3{display:inline;fill:#b3c9e8}.st4{display:none;fill:#9fb293}.st5{fill:#fff}.st6{fill:#e92347}.st7{fill:#e82547}.st8{fill:#e72747}.st9{fill:#e62848}.st10{fill:#ffcf26}.st11{fill:#b7b7b7}.st12{fill:#e82647}.st13{fill:#d7d7d7}.st14{fill:#707070}.st15{fill:#959595}.st16{fill:#a1a1a1}.st17{fill:#e72847}.st18{display:none;fill:#a36c6c}</style><g id="Layer_2_1_" class="st0"><path class="st1 st2" d="M-10.5-3H204v329H-10.5z" id="Layer_2"/><path class="st3" d="M1.5 179.3h38v24.5h-38zM42.5 179.3h38v24.5h-38zM82.5 179.3h38v24.5h-38zM122.5 179.3h38v24.5h-38z"/></g><path class="st4" d="M49.8 256h70v70h-70zM130 256h70v70h-70z"/><g id="Layer_1_2_"><g id="Layer_1_1_"><path class="st5" d="M25.8 24.7l-6.3-6.3c1.7-1.9 2.7-4.5 2.7-7.3C22.2 5 17.2 0 11.1 0S0 5 0 11.1s5 11.1 11.1 11.1c2.8 0 5.3-1 7.3-2.7l6.3 6.3c.2.1.4.2.5.2.2 0 .4-.1.5-.2.4-.3.4-.8.1-1.1zM1.6 11.1c0-5.3 4.3-9.5 9.5-9.5 5.3 0 9.5 4.3 9.5 9.5s-4.3 9.5-9.5 9.5c-5.3 0-9.5-4.3-9.5-9.5zM186.8 22l-4.9-4.9c1.3-1.5 2.1-3.5 2.1-5.6 0-4.7-3.8-8.5-8.5-8.5s-8.5 3.8-8.5 8.5 3.8 8.5 8.5 8.5c2.1 0 4.1-.8 5.6-2.1l4.9 4.9c.1.1.3.2.4.2.2 0 .3-.1.4-.2.3-.2.3-.6 0-.8zm-18.6-10.5c0-4 3.3-7.3 7.3-7.3s7.3 3.3 7.3 7.3-3.3 7.3-7.3 7.3c-4 .1-7.3-3.2-7.3-7.3zM34.1 9.1h15.1c.7 0 1.2-.7.8-1.4-.3-.6-7-6.2-7.5-7.2-.4-.6-1.3-.6-1.6 0-.4.7-7.1 6.4-7.6 7.2-.4.6 0 1.4.8 1.4z"/></g><path class="st6" d="M31 73.9c.8 0 1.4-.6 1.4-1.4 0-.7-.6-1.4-1.4-1.4s-1.4.6-1.4 1.4c0 .8.6 1.4 1.4 1.4zm29.7-39.8H1.3c-.7 0-1.3.6-1.3 1.3v41.4c0 .7.6 1.2 1.3 1.2h22.1l-2.2 5.4H17c-.7 0-1.3.6-1.3 1.3v4.8c0 .7.6 1.3 1.3 1.3h28c.7 0 1.3-.6 1.3-1.3v-4.8c0-.7-.6-1.3-1.3-1.3h-4.2L38.6 78h22.1c.7 0 1.3-.6 1.3-1.3V35.4c0-.7-.6-1.3-1.3-1.3zm-17 51.8v2.3H18.3v-2.3h25.4zm-19.8-2.5l2.2-5.4h9.8l2.2 5.4H23.9zm35.6-7.9h-57v-5.9h56.9l.1 5.9zm0-8.4h-57V36.7h56.9l.1 30.4zm-37.1-14h1.3c.1.4.2.9.3 1.3l-1.1.6c-.6.3-.8 1.1-.5 1.7.3.6 1.1.8 1.7.5l1.2-.7.9.9-.7 1.2c-.3.6-.1 1.4.5 1.7s1.4.1 1.7-.5l.7-1.2c.4.2.8.3 1.3.3v1.3c0 .7.6 1.3 1.3 1.3.7 0 1.3-.6 1.3-1.3v-1.3c.4-.1.9-.2 1.3-.3l.7 1.2c.3.6 1.1.8 1.7.5.6-.3.8-1.1.5-1.7l-.7-1.2.9-.9 1.2.7c.6.3 1.4.1 1.7-.5s.1-1.4-.5-1.7l-1.2-.7c.2-.4.3-.8.3-1.3h1.3c.7 0 1.3-.6 1.3-1.3s-.6-1.3-1.3-1.3h-1.3c-.1-.4-.2-.9-.3-1.3l1.2-.7c.6-.3.8-1.1.5-1.7-.3-.6-1.1-.8-1.7-.5l-1.2.7-.9-.9.7-1.2c.3-.6.1-1.4-.5-1.7s-1.4-.1-1.7.5l-.7 1.2c-.4-.2-.8-.3-1.3-.3v-1.3c0-.7-.6-1.3-1.3-1.3-.7 0-1.3.6-1.3 1.3v1.3c-.4.1-.9.2-1.3.3l-.7-1.2c-.3-.6-1.1-.8-1.7-.5s-.8 1.1-.5 1.7l.7 1.2-.9.9-1.2-.7c-.6-.3-1.4-.1-1.7.5-.3.6-.1 1.4.5 1.7l1.2.7c-.2.4-.3.8-.3 1.3h-1.3c-.7 0-1.3.6-1.3 1.3s.5 1.4 1.2 1.4zM31 47c2.7 0 4.9 2.2 4.9 4.8 0 2.7-2.2 4.8-4.9 4.8s-4.9-2.2-4.9-4.8c0-2.6 2.2-4.8 4.9-4.8z"/><path class="st7" d="M119.5 83.2c-1.8-.7-2.5-1.7-2.5-3.2.1-1.7-.9-2.9-1.3-3.4.3-1.1 1.1-4.7 0-7.9-1.2-3.4-4.7-8.6-8.3-13.7-1.5-2.1-1.6-4.4-1.6-7-.1-2.5-.2-5.4-1.6-8.5-1.5-3.4-4.6-5.4-8.4-5.4-2.3 0-4.6.7-6.4 1.9-3.6 2.5-3.2 8-2.8 11.7 0 .5.1 1 .1 1.4.2 3.6 0 5.4-.2 6-.2.4-1 1.4-1.8 2.6-.9 1.2-1.9 2.5-2.7 3.7-1 1.5-1.8 3.7-2.5 5.9-.6 1.6-1.1 3.1-1.6 4-1 1.7-.7 3.4-.5 4.1-.4.3-.9.8-1.3 1.7-.5 1.2-1.6 1.8-3.9 2.2-1.1.2-1.8.7-2.2 1.3-.6 1-.3 2.2 0 3 .4 1.2.2 2-.3 3.4-.1.3-.2.7-.3 1.1-.2.6-.1 1.2.2 1.7.9 1.3 3.4 1.8 6 2.1 1.6.2 3.2.8 4.9 1.4 1.6.6 3.3 1.2 4.8 1.4h.7c2.3 0 3.3-1.5 3.6-2.1.8-.2 3.6-.7 6.6-.8 2.9-.1 5.7.5 6.5.7.3.5.9 1.6 2 2.1.6.3 1.4.5 2.2.5.9 0 2.6-.2 3.9-1.6s4.6-3.2 7-4.5c.5-.3 1-.6 1.5-.8 1.4-.8 2.1-1.8 2-3-.2-.8-.8-1.7-1.8-2zm-30-.3c-.2-1.2-1.7-2.4-3.5-3.7-1.4-1.1-3.1-2.4-3.5-3.5-.9-2.2-.2-6.1 1.1-8.1.6-1 1.2-2.5 1.7-4 .5-1.6 1.1-3.2 1.7-4 1-1.1 1.9-3.3 2.1-5 .9.9 2.4 2 3.7 2 .2 0 .4 0 .6-.1.9-.3 2.3-1 3.5-1.8 1.1-.6 2.5-1.4 3-1.5.9 1.3 6.1 12.7 6.6 16.4.4 2.9 0 5.3-.2 6.3h-.6c-1.4 0-1.8.8-1.9 1.3-.3 1.2-.3 5.1-.3 6-.5.7-3.2 3.8-6.9 4.3-1.5.2-3 .3-4.3.3-1.1 0-1.8-.1-2.1-.1l-1.9-2.2c.6-.4 1.4-1.2 1.2-2.6zM91.9 47c-.1 0-.1.1-.2.1v-.4c-.2-1.2-1-2.1-1.9-2.1h-.2c-.5.1-.9.5-1.2 1 .2-1.2.9-2.1 1.7-2.1 1 0 1.8 1.3 1.8 2.9v.6zm7.5.9c.1-.3.1-.6.1-.9 0-1.4-.9-2.5-2-2.5s-2 1.1-2 2.5v.3c-.1 0-.1 0-.2-.1-.1-.4-.2-.8-.2-1.2 0-1.7 1.1-3 2.4-3s2.4 1.4 2.4 3c0 .7-.1 1.4-.5 1.9zm-.9 3.3c0 .1-.1.1-.5.4-.2.1-.5.3-.9.5l-.2.1c-.9.6-3.1 1.9-3.7 2-.4.1-.7-.1-1.2-.5-.1-.1-.3-.2-.4-.3-1-.7-1.7-1.4-1.7-1.7.3-.3 1.2-.9 1.6-1.3.9-.8 1.7-1.3 2.1-1.3h.1c.5.1 1.7.6 2.6.9.4.2.8.3 1 .4.7.3 1.1.6 1.2.8zm7.1 37.3c.5-2 1-4.8.9-6.4 0-.4-.1-.8-.1-1.2-.1-.7-.1-1.8-.1-2.1h.1c0 .9.2 2.8 1.7 3.4.4.2.9.3 1.5.3 1.5 0 3.1-.7 3.8-1.4.4-.4.7-.9 1-1.3.1.2.1.3.1.6-.1 1.4.6 3.2 1.9 3.9l.2.1c.5.2 1.7.9 1.7 1.2l-.1.1c-.3.3-1.4.8-2.4 1.3-1.8.9-3.9 2-4.8 3-1.3 1.4-2.8 2.3-3.7 2.3h-.3c-1-.4-1.8-1.8-1.4-3.8zm-32.9-5.2c-.1-.5-.2-.8-.1-1.2.1-.3 1.4-.5 1.9-.7.8-.2 1.6-.3 2.1-.7.7-.4 1.1-1.2 1.4-1.9.2-.5.5-1 .8-1.2h.1c.6 0 1.7 1.2 2.4 2.3.2.3.5.8.9 1.4 1.1 1.9 2.6 4.4 3.4 5.3.7.8 1.9 2.2 1.6 3.5-.2 1-1.3 1.8-1.6 2h-.4c-1.5 0-4.5-1.3-6.1-1.9l-.2-.2c-.9-.4-2.4-.6-3.8-.8-1.1-.2-2.7-.4-2.9-.7-.2-.2 0-1 .2-1.7.2-.5.3-1 .4-1.5.1-.8 0-1.5-.1-2z"/><path class="st8" d="M134.9 64.4c-.6 0-1.1.5-1.1 1.1s.5 1.1 1.1 1.1 1.1-.5 1.1-1.1-.5-1.1-1.1-1.1zm0 6.5c-.6 0-1.1.5-1.1 1.1s.5 1.1 1.1 1.1 1.1-.5 1.1-1.1c0-.7-.5-1.1-1.1-1.1zm3.2-3.3c-.6 0-1.1.5-1.1 1.1s.5 1.1 1.1 1.1 1.1-.5 1.1-1.1c0-.6-.5-1.1-1.1-1.1zm6.5 0c-.6 0-1.1.5-1.1 1.1s.5 1.1 1.1 1.1 1.1-.5 1.1-1.1c0-.6-.5-1.1-1.1-1.1zm-3.2 3.3c-.6 0-1.1.5-1.1 1.1s.5 1.1 1.1 1.1 1.1-.5 1.1-1.1c0-.7-.5-1.1-1.1-1.1zm6.5 0c-.6 0-1.1.5-1.1 1.1s.5 1.1 1.1 1.1 1.1-.5 1.1-1.1c-.1-.7-.5-1.1-1.1-1.1zm3.2-3.3c-.6 0-1.1.5-1.1 1.1s.5 1.1 1.1 1.1 1.1-.5 1.1-1.1c0-.6-.5-1.1-1.1-1.1zm6.5 0c-.6 0-1.1.5-1.1 1.1s.5 1.1 1.1 1.1 1.1-.5 1.1-1.1c0-.6-.5-1.1-1.1-1.1zm-3.3 3.3c-.6 0-1.1.5-1.1 1.1s.5 1.1 1.1 1.1 1.1-.5 1.1-1.1c0-.7-.5-1.1-1.1-1.1zm6.5 0c-.6 0-1.1.5-1.1 1.1s.5 1.1 1.1 1.1 1.1-.5 1.1-1.1c0-.7-.5-1.1-1.1-1.1zm3.3-3.3c-.6 0-1.1.5-1.1 1.1s.5 1.1 1.1 1.1 1.1-.5 1.1-1.1c-.1-.6-.5-1.1-1.1-1.1zm6.4 0c-.6 0-1.1.5-1.1 1.1s.5 1.1 1.1 1.1 1.1-.5 1.1-1.1-.5-1.1-1.1-1.1zm-3.2 3.3c-.6 0-1.1.5-1.1 1.1s.5 1.1 1.1 1.1 1.1-.5 1.1-1.1c0-.7-.5-1.1-1.1-1.1zm6.5 0c-.6 0-1.1.5-1.1 1.1s.5 1.1 1.1 1.1 1.1-.5 1.1-1.1c0-.7-.5-1.1-1.1-1.1zm3.2-1.1c.6 0 1.1-.5 1.1-1.1s-.5-1.1-1.1-1.1-1.1.5-1.1 1.1.5 1.1 1.1 1.1zm3.3-5.4c-.6 0-1.1.5-1.1 1.1s.5 1.1 1.1 1.1 1.1-.5 1.1-1.1-.5-1.1-1.1-1.1zm-35.7 9.7c-.6 0-1.1.5-1.1 1.1s.5 1.1 1.1 1.1 1.1-.5 1.1-1.1c0-.6-.5-1.1-1.1-1.1zm6.5 0c-.6 0-1.1.5-1.1 1.1s.5 1.1 1.1 1.1 1.1-.5 1.1-1.1c0-.6-.5-1.1-1.1-1.1zm6.5 0c-.6 0-1.1.5-1.1 1.1s.5 1.1 1.1 1.1 1.1-.5 1.1-1.1c0-.6-.5-1.1-1.1-1.1zm6.5 0c-.6 0-1.1.5-1.1 1.1s.5 1.1 1.1 1.1 1.1-.5 1.1-1.1c-.1-.6-.5-1.1-1.1-1.1zm6.4 0c-.6 0-1.1.5-1.1 1.1s.5 1.1 1.1 1.1 1.1-.5 1.1-1.1-.5-1.1-1.1-1.1zm12.9-30.6s0-.1 0 0c0-.1 0-.1-.1-.1-1.3-5.3-12.7-9.2-26.9-9.2s-25.5 3.9-26.9 9.2v.2c0 .1-.1.2-.1.4v40c0 .2 0 .3.1.5 1.3 5.3 12.7 9.2 26.9 9.2s25.5-3.9 26.9-9.2c.1-.2.1-.3.1-.5V44c.1-.3.1-.4 0-.5zm-2.1 40c-.6 3.8-10.7 7.8-24.8 7.8s-24.2-4-24.8-7.7v-9.2c3.7 3.4 12.1 6.2 24.8 6.2s21.1-2.8 24.8-6.2v9.1zm0-18v4c0 .2-.1.3 0 .5v.4c0 .3-.1.6-.2 1-.2-.3-.5-.4-.8-.4-.6 0-1.1.5-1.1 1.1 0 .4.3.8.6 1-.6.5-1.3 1-2.1 1.4-.2-.2-.4-.3-.7-.3-.6 0-1.1.5-1.1 1.1-2.2.9-4.9 1.7-8.1 2.3-.2-.1-.3-.1-.5-.1-.3 0-.6.1-.8.4-1.5.2-3 .4-4.6.5-.1-.5-.5-.9-1-.9-.6 0-1 .4-1.1 1-1.1 0-2.1.1-3.3.1h-1.1c0-.6-.5-1.1-1.1-1.1s-1 .4-1.1 1c-1.5-.1-3-.2-4.4-.3-.2-.4-.5-.7-1-.7-.3 0-.6.2-.8.4-3.1-.4-5.8-1.1-8.1-1.9.2-.2.3-.4.3-.7 0-.6-.5-1.1-1.1-1.1s-1.1.5-1.1 1.1c-3.4-1.5-5.4-3.2-5.4-4.9V70v-.2c.6 0 1.1-.5 1.1-1.1s-.5-1.1-1.1-1.1v-4.3c.6 0 1-.4 1.1-1 1.9 1.3 4.5 2.5 7.6 3.3.1.5.5.9 1 .9.3 0 .6-.2.8-.4 4.1 1 9 1.5 14.3 1.5 6.1 0 11.7-.7 16.2-2 .1.5.5.9 1 .9.6 0 1.1-.5 1.1-1.1 0-.2 0-.3-.1-.5 2.8-1 5.1-2.2 6.6-3.5v4.1h.1zm0-7.9c0 .1 0 .1 0 0-.6 3.8-10.8 7.8-24.8 7.8s-24.2-4-24.8-7.7V48.4c3.7 3.4 12.1 6.2 24.8 6.2s21.1-2.8 24.8-6.2v9.2zm-24.8-5.1c-14.6 0-24.8-4.3-24.8-8.1V44c.6-3.7 10.7-7.7 24.8-7.7s24.2 4 24.8 7.7v.4c0 3.8-10.2 8.1-24.8 8.1z"/><path class="st9" d="M28.6 163.3v-16.9c0-.6-.5-1.1-1.1-1.1h-7c-.6 0-1.1.5-1.1 1.1s.5 1.1 1.1 1.1h6v15.8c-2 .5-3.5 2.3-3.5 4.4 0 2.5 2 4.6 4.6 4.6 2.5 0 4.6-2 4.6-4.6-.1-2.1-1.6-3.9-3.6-4.4zm-1.1 6.9c-1.4 0-2.5-1.1-2.5-2.5s1.1-2.5 2.5-2.5 2.5 1.1 2.5 2.5-1.1 2.5-2.5 2.5zm12.3-6.9v-16.9c0-.6-.5-1.1-1.1-1.1h-7c-.6 0-1.1.5-1.1 1.1s.5 1.1 1.1 1.1h6v15.8c-2 .5-3.5 2.3-3.5 4.4 0 2.5 2 4.6 4.6 4.6 2.5 0 4.6-2 4.6-4.6-.1-2.1-1.6-3.9-3.6-4.4zm-1 6.9c-1.4 0-2.5-1.1-2.5-2.5s1.1-2.5 2.5-2.5 2.5 1.1 2.5 2.5c-.1 1.4-1.2 2.5-2.5 2.5zm18.9-14c-2.2 0-4 1.5-4.4 3.5H51v-13.2c0-.6-.5-1.1-1.1-1.1h-7c-.6 0-1.1.5-1.1 1.1s.5 1.1 1.1 1.1h6v13.2c0 .6.5 1.1 1.1 1.1h3.3c.5 2 2.3 3.5 4.4 3.5 2.5 0 4.6-2 4.6-4.6s-2.1-4.6-4.6-4.6zm0 7c-1.4 0-2.5-1.1-2.5-2.5s1.1-2.5 2.5-2.5 2.5 1.1 2.5 2.5-1.1 2.5-2.5 2.5zm5.9-34.2c-1.4-1.8-3.3-3.1-5.5-3.7-.2-5-2.3-9.6-5.9-13.2-3.8-3.7-8.7-5.8-14-5.8-7 0-13.4 3.6-17 9.5-.9-.3-1.8-.4-2.7-.4-4.3 0-8 3-8.9 7.2-5.5 1.4-9.5 6.5-9.5 12.2 0 7 5.7 12.6 12.6 12.6h2.4v12.2H13c-.5-2-2.3-3.5-4.4-3.5-2.5 0-4.6 2-4.6 4.6 0 2.5 2 4.6 4.6 4.6 2.2 0 4-1.5 4.4-3.5h3.3c.6 0 1.1-.5 1.1-1.1v-14.3c0-.6-.5-1.1-1.1-1.1h-3.5c-5.8 0-10.5-4.7-10.5-10.5 0-5 3.6-9.4 8.5-10.3.4-.1.8-.4.8-.9.5-3.5 3.4-6.1 6.9-6.1 1 0 1.9.2 2.8.6.5.2 1.1 0 1.3-.5 3.1-5.7 9.1-9.2 15.6-9.2 9.7 0 17.7 7.9 17.8 17.7 0 .5.3.9.8 1 4.2 1 7.2 4.7 7.2 9 0 5.1-4.2 9.3-9.3 9.3h-.6c-.6 0-1.1.5-1.1 1.1s.5 1.1 1.1 1.1h.6c6.3 0 11.4-5.1 11.4-11.4 0-2.6-.8-5.2-2.5-7.2zm-55 34.2c-1.4 0-2.5-1.1-2.5-2.5s1.1-2.5 2.5-2.5 2.5 1.1 2.5 2.5c-.1 1.4-1.2 2.5-2.5 2.5zm42.9-36c.6 0 1.1-.5 1.1-1.1 0-1.7-.3-3.4-1-5-.2-.5-.8-.8-1.4-.6-.5.2-.8.8-.6 1.4.5 1.4.8 2.8.8 4.3 0 .5.5 1 1.1 1zm-3.9-8.7c.2.3.5.4.8.4.2 0 .5-.1.7-.2.4-.4.5-1 .1-1.5-2.7-3.3-6.8-5.2-11-5.2-.6 0-1.1.5-1.1 1.1s.5 1.1 1.1 1.1c3.7-.1 7.1 1.5 9.4 4.3zM131.6 121.4h-2.7v-3.6c0-.5-.4-.9-.9-.9h-24.3v-7.2c0-.5-.4-.9-.9-.9H79.4c-.5 0-.9.4-.9.9v53.1h1.8v-52.2h21.6v10.8H85.7v1.8h45v39.6h1.8v-40.5c0-.5-.4-.9-.9-.9zm-4.5 0h-23.4v-2.7h23.4v2.7zm-2.7 22.5c-1.7 0-3.1 1.2-3.5 2.7h-4.6V133c1.5-.4 2.7-1.8 2.7-3.5 0-2-1.6-3.6-3.6-3.6s-3.6 1.6-3.6 3.6c0 1.7 1.2 3.1 2.7 3.5v13.6h-8.1v-6.4c1.5-.4 2.7-1.8 2.7-3.5 0-2-1.6-3.6-3.6-3.6s-3.6 1.6-3.6 3.6c0 1.7 1.2 3.1 2.7 3.5v13.6h-9.9V142c1.5-.4 2.7-1.8 2.7-3.5 0-2-1.6-3.6-3.6-3.6s-3.6 1.6-3.6 3.6c0 1.7 1.2 3.1 2.7 3.5v11.8h-2.8c-.4-1.5-1.8-2.7-3.5-2.7-2 0-3.6 1.6-3.6 3.6s1.6 3.6 3.6 3.6c1.7 0 3.1-1.2 3.5-2.7h14.5v7.2h1.8v-14.4h14.5c.4 1.5 1.8 2.7 3.5 2.7 2 0 3.6-1.6 3.6-3.6s-1.6-3.6-3.6-3.6zm-37.8 12.6c-1 0-1.8-.8-1.8-1.8s.8-1.8 1.8-1.8 1.8.8 1.8 1.8-.8 1.8-1.8 1.8zm5.4-18c0-1 .8-1.8 1.8-1.8s1.8.8 1.8 1.8-.8 1.8-1.8 1.8-1.8-.8-1.8-1.8zm13.5 0c-1 0-1.8-.8-1.8-1.8s.8-1.8 1.8-1.8 1.8.8 1.8 1.8-.8 1.8-1.8 1.8zm8.1-9c0-1 .8-1.8 1.8-1.8s1.8.8 1.8 1.8-.8 1.8-1.8 1.8-1.8-.8-1.8-1.8zm10.8 19.8c-1 0-1.8-.8-1.8-1.8s.8-1.8 1.8-1.8 1.8.8 1.8 1.8-.8 1.8-1.8 1.8z"/><path class="st10" d="M151.1 116.1l3.1 6.2 6.4 1.3-4.4 5.2.8 7-5.9-3-5.9 3 .8-7-4.4-5.2 6.4-1.3 3.1-6.2"/><path class="st7" d="M180.1 156.7L168.7 168c-.7.7-1.9.7-2.6 0-.7-.7-.7-1.9 0-2.6l10-10-10-10c-.7-.7-.7-1.9 0-2.6.7-.7 1.9-.7 2.6 0l11.3 11.3c.4.4.5.8.5 1.3.1.4-.1.9-.4 1.3zM142.6 155.4c0-.5.2-.9.5-1.3l11.3-11.3c.7-.7 1.9-.7 2.6 0 .7.7.7 1.9 0 2.6l-10 10 10 10c.7.7.7 1.9 0 2.6-.7.7-1.9.7-2.6 0l-11.3-11.3c-.3-.4-.5-.9-.5-1.3z"/><path class="st11" d="M75.2 6.3L68.8.1v4.1c-4.8 0-8.6 3.8-8.6 8.5C62 9.6 65.4 8 68.8 8.4v4.2l6.4-6.3zM102.1 5.5c0-.1-1.1-1.3-2.8-2.6C97 1.2 94.4.3 92 .3c-2.5 0-5 .9-7.3 2.6-1.7 1.3-2.8 2.6-2.8 2.6l-.5.5.4.5c0 .1 1.1 1.3 2.8 2.6 2.3 1.7 4.9 2.6 7.3 2.6 2.5 0 5-.9 7.3-2.6 1.7-1.3 2.8-2.6 2.8-2.6l.4-.5-.3-.5zm-3.7 2.4C97 9 94.7 10.2 92 10.2s-5-1.3-6.4-2.3c-1-.7-1.7-1.5-2.2-1.9.4-.5 1.2-1.2 2.2-1.9C87 3 89.2 1.8 91.9 1.8c2.7 0 5 1.3 6.4 2.3 1 .7 1.7 1.5 2.2 1.9-.4.4-1.1 1.2-2.1 1.9zm-6.5-5c-.8 0-1.4.3-2 .7.4.1.7.5.7 1 0 .6-.5 1-1 1-.3 0-.6-.1-.8-.3-.1.2-.1.5-.1.7 0 1.7 1.4 3.1 3.1 3.1s3.1-1.4 3.1-3.1c.2-1.7-1.2-3.1-3-3.1z"/><path class="st12" d="M126.2 1.9c3.5 0 6.3 2.8 6.3 6.3s-2.8 6.3-6.3 6.3-6.3-2.8-6.3-6.3 2.8-6.3 6.3-6.3m0-1.9c-4.5 0-8.2 3.7-8.2 8.2s8.2 17.8 8.2 17.8 8.2-13.3 8.2-17.8-3.7-8.2-8.2-8.2z"/><path class="st6" d="M22.3 179.9h-2.5c-1.9 0-3.3.5-4.1 1.4-.8.9-1.3 2.2-1.3 4v1.7c0 .4-.4.8-.8.8h-.9c-.4 0-.8.4-.8.8v2.5c0 .4.4.8.8.8h.9c.4 0 .8.4.8.8v10.4c0 .4.4.8.8.8h3.4c.4 0 .8-.4.8-.8v-10.4c0-.4.4-.8.8-.8h1.7c.4 0 .8-.4.9-.8l.3-2.5c0-.4-.3-.8-.7-.8h-2.1c-.4 0-.8-.4-.8-.8v-1.3-.7c0-.2.1-.3.2-.5s.3-.3.5-.3c.2-.1.5-.1.9-.1h1.3c.4 0 .8-.4.8-.8v-2.5c-.1-.6-.5-.9-.9-.9zM73.1 184.7c-.1 0-.2.1-.3.1-.7.2-.8-.1-.3-.6.2-.2.4-.5.6-.8.4-.6.1-.9-.6-.6-.2.1-.5.2-.7.3-.7.2-1.7-.1-2.3-.5-.8-.5-1.7-.7-2.7-.7-1.4 0-2.6.5-3.6 1.5s-1.5 2.2-1.5 3.6v.6c0 .3-.5.6-1.2.4-1.6-.2-3.1-.7-4.5-1.4s-2.6-1.6-3.7-2.7c-.5-.5-1.2-.5-1.4.2-.1.4-.2.9-.2 1.3 0 .9.2 1.7.6 2.4.2.4.4.7.7 1 .5.5.4.8-.2.6-.6-.2-1.1-.4-1.1-.4 0 1.2.4 2.3 1.1 3.2.5.6 1 1 1.6 1.3.7.3 1 .5.6.6h-1.2c-.3 0-.3.5.1 1.1.3.5.7.9 1.2 1.3s1 .7 1.6.8c.7.2.8.6.2.9-1.6.9-3.3 1.4-5.2 1.4h-.6c-.3 0-.1.3.5.6 2 1.1 4.2 1.6 6.6 1.6 1.8 0 3.5-.3 5-.9 1.6-.6 2.9-1.3 4-2.3s2.1-2 2.9-3.3c.8-1.2 1.4-2.5 1.8-3.9.4-1.3.6-2.7.6-4.1v-.3c0-.2.5-.7 1-1.2l.7-.7c.8-.4.6-.6-.1-.4zM108.4 190.7h-9.3v3.1h5.7c-.8 2.7-3.4 4.7-6.4 4.7a6.7 6.7 0 0 1 0-13.4c1.9 0 3.5.8 4.7 2l2.3-2.5c-1.8-1.8-4.3-2.9-7-2.9-5.5 0-10 4.5-10 10s4.5 10 10 10c4.8 0 9.1-3.4 10-8v-3zM114.5 190.7h-1.9v-1.9h-1.7v1.9H109v1.7h1.9v1.9h1.7v-1.9h1.9z"/><g><path id="LinkedIn" class="st6" d="M152.1 193.8v7.7h-4.5v-7.2c0-1.8-.6-3.1-2.3-3.1-1.2 0-2 .8-2.3 1.6-.1.3-.1.7-.1 1.1v7.5h-4.5s.1-12.2 0-13.5h4.5v1.9c.6-.9 1.7-2.2 4-2.2 3 .1 5.2 2.1 5.2 6.2zm-18.4-12.2c-1.5 0-2.5 1-2.5 2.3s1 2.3 2.5 2.3c1.6 0 2.5-1 2.5-2.3s-1-2.3-2.5-2.3zm-2.3 20h4.5v-13.5h-4.5v13.5z"/></g></g><path class="st12" d="M9.5 209.8l3.1 6.2 6.4 1.3-4.4 5.2.8 7-5.9-3-5.9 3 .8-7-4.4-5.2 6.4-1.3 3.1-6.2"/><path class="st13" d="M32.5 209.8l3.1 6.2 6.4 1.3-4.4 5.2.8 7-5.9-3-5.9 3 .8-7-4.4-5.2 6.4-1.3 3.1-6.2"/><path class="st14" d="M53.5 222.6l-3.5-5.9h7l-3.5 5.9M63.5 216.7l3.5 5.9h-7l3.5-5.9"/><path class="st11" d="M72.9 220H75v-2.1h-2.1v2.1zm0-3.7H75v-2.1h-2.1v2.1zm0 7.4H75v-2.1h-2.1v2.1zm3.5-3.7h7.5v-2.1h-7.5v2.1zm0-5.8v2.1h7.5v-2.1h-7.5zm0 9.5h7.5v-2.1h-7.5v2.1zM100.4 224.5c1.2-.5 2.1-1.2 2.7-2 .7-.8 1-1.8 1-2.8s-.3-1.9-1-2.8c-.7-.8-1.6-1.5-2.7-2-1.2-.5-2.4-.7-3.8-.7s-2.6.2-3.8.7c-1.2.5-2.1 1.2-2.7 2-.7.8-1 1.8-1 2.8 0 .9.3 1.7.8 2.4.5.8 1.2 1.4 2.1 1.9-.1.2-.1.3-.2.5-.1.1-.2.3-.3.4-.1.1-.2.2-.2.3-.1.1-.1.2-.3.3-.1.1-.2.2-.2.3v.7c0 .1.1.2.1.2.1.1.1.1.2.1.4-.1.7-.1.9-.2 1.1-.3 2.1-.7 3-1.4.6.1 1.3.2 1.9.2 1.1-.2 2.3-.4 3.5-.9zm-6-.9l-.5.3c-.2.1-.4.3-.7.4l.4-.9-1-.6c-.7-.4-1.2-.9-1.6-1.4s-.6-1.1-.6-1.7c0-.7.3-1.4.8-2.1.6-.6 1.3-1.1 2.3-1.5.9-.4 2-.6 3-.6 1.1 0 2.1.2 3 .6.9.4 1.7.9 2.3 1.5.6.6.8 1.3.8 2.1 0 .7-.3 1.4-.8 2.1-.6.6-1.3 1.1-2.3 1.5-.9.4-2 .6-3 .6-.5 0-1.1-.1-1.6-.2l-.5-.1z"/><path class="st15" d="M123.7 224.4c1.3-.6 2.4-1.3 3.1-2.3.8-1 1.2-2 1.2-3.1s-.4-2.2-1.2-3.1c-.8-1-1.8-1.7-3.1-2.3-1.3-.6-2.8-.8-4.3-.8s-3 .3-4.3.8c-1.3.6-2.4 1.3-3.1 2.3-.8 1-1.2 2-1.2 3.1 0 1 .3 1.9.9 2.7.6.9 1.4 1.6 2.4 2.2-.1.2-.2.4-.3.5-.1.2-.2.3-.3.5-.1.1-.2.3-.3.4-.1.1-.2.2-.3.4-.1.2-.2.3-.3.3v.1l-.1.1v.6c0 .1.1.2.1.3.1.1.2.1.3.1.4-.1.8-.1 1.1-.2 1.3-.3 2.4-.8 3.4-1.6.7.1 1.5.2 2.2.2 1.3-.4 2.7-.7 4.1-1.2zm-6.9-1l-.5.4c-.2.2-.5.3-.8.5l.4-1-1.2-.7c-.8-.5-1.4-1-1.8-1.6s-.7-1.3-.7-1.9c0-.8.3-1.6 1-2.3.6-.7 1.5-1.3 2.6-1.7s2.3-.6 3.5-.6c1.3 0 2.4.2 3.5.6 1.1.4 2 1 2.6 1.7s1 1.5 1 2.3-.3 1.6-1 2.3c-.6.7-1.5 1.3-2.6 1.7s-2.3.6-3.5.6c-.6 0-1.2-.1-1.9-.2l-.6-.1zm15 1.4c.6-.8.9-1.8.9-2.7 0-1-.3-1.9-.9-2.8-.6-.9-1.4-1.6-2.5-2.2.2.6.3 1.2.3 1.8 0 1.1-.3 2.1-.8 3.1s-1.3 1.8-2.4 2.6c-.9.7-2 1.2-3.2 1.6-1.2.4-2.5.5-3.8.5h-1.1c1.6 1.1 3.6 1.6 5.8 1.6.7 0 1.4-.1 2.2-.2 1 .7 2.2 1.2 3.4 1.6.3.1.6.1 1.1.2.1 0 .2 0 .3-.1s.1-.2.2-.3v-.1V229.1v-.1-.1l-.1-.1v-.1s-.1-.2-.3-.3c-.1-.2-.3-.3-.3-.4-.1-.1-.2-.2-.3-.4-.1-.1-.2-.3-.3-.5s-.2-.3-.3-.5c.7-.2 1.5-.9 2.1-1.8z"/><path class="st16" d="M154.2 224.9c3.9 0 7-3.9 7-8.6 0-4.7-3.2-8.6-7-8.6-1.9 0-3.7.9-5 2.6-1.3 1.6-2 3.7-2 6 0 4.7 3.1 8.6 7 8.6zm0-15.6c3 0 5.5 3.2 5.5 7 0 3.9-2.5 7-5.5 7s-5.5-3.2-5.5-7c0-3.9 2.5-7 5.5-7zm5.5 14c-.4 0-.8.3-.8.8 0 .4.3.8.8.8 3 0 5.5 2.5 5.5 5.5 0 .4-.4.8-.8.8h-20.3c-.4 0-.8-.4-.8-.8 0-3 2.5-5.5 5.5-5.5.4 0 .8-.3.8-.8 0-.4-.3-.8-.8-.8-3.9 0-7 3.2-7 7 0 1.3 1.1 2.3 2.3 2.3h20.3c1.3 0 2.3-1.1 2.3-2.3 0-3.8-3.1-7-7-7z"/><path class="st7" d="M191.1 229l-2.5-2.5c-.5-.5-1.3-.5-1.8 0l-1.2 1.2c-.1 0-.2-.1-.2-.1-.8-.4-1.9-1-3-2.2-1.1-1.1-1.7-2.2-2.2-3 0-.1-.1-.2-.1-.2l.8-.8.4-.4c.5-.5.5-1.3 0-1.8l-2.5-2.5c-.5-.5-1.3-.5-1.8 0l-.7.7c-.2.3-.4.6-.6 1-.1.4-.2.7-.3 1-.3 2.7.9 5.2 4.3 8.6 4.6 4.6 8.4 4.3 8.5 4.3.4 0 .7-.1 1-.3.4-.1.7-.3 1-.6l.7-.7c.7-.4.7-1.2.2-1.7z"/><path class="st12" d="M1.9 1186c-.3 0-.6.1-.8.2l7.7 6.1c.4.3.8.3 1.3 0l7.7-6.1c-.2-.1-.5-.2-.8-.2H1.9zm-1.3.9c-.1.2-.1.4-.1.6v7.8c0 .8.6 1.4 1.4 1.4H17c.8 0 1.4-.6 1.4-1.4v-7.8c0-.2 0-.4-.1-.6l-7.7 6.1c-.7.5-1.6.5-2.3 0l-7.7-6.1z" transform="translate(0 -952.362)"/><path class="st6" d="M28.7 235.6l-4.1 4.1-1.8-1.9c-.3-.3-.6-.3-.8 0-.3.3-.3.6 0 .8l2.3 2.3c.1.1.3.2.4.2.2 0 .3-.1.4-.2l4.5-4.5c.3-.3.3-.6 0-.8-.3-.3-.7-.3-.9 0z"/><path class="st17" d="M80.2 250.5h5.3v-2.7h-5.3v2.7zm-9.4-16v2.7h24v-2.7h-24zm4 9.3h16v-2.7h-16v2.7z"/><path class="st5" d="M18.1 265.1h-3.8v-3.8c0-.4-.3-.6-.6-.6s-.7.3-.7.6v3.8H9.3c-.3 0-.6.3-.6.6 0 .4.3.6.6.6H13v3.8c0 .4.3.6.6.6s.6-.3.6-.6v-3.8H18c.3 0 .6-.3.6-.6.1-.3-.2-.6-.5-.6zM32.3 285l-9.3-9.8c2.4-2.4 3.9-5.8 3.9-9.4 0-7.4-5.9-13.4-13.2-13.4S.5 258.4.5 265.8s5.9 13.4 13.2 13.4c3.2 0 6.1-1.2 8.4-3.1l9.3 9.9c.1.1.3.2.5.2s.3-.1.4-.2c.3-.3.3-.7 0-1zm-18.6-7.1c-6.6 0-11.9-5.4-11.9-12.1s5.3-12.1 11.9-12.1 11.9 5.4 11.9 12.1c0 6.6-5.3 12.1-11.9 12.1zM99.1 299.7l-4.6-4.6c-.9-.9-2.5-.9-3.4.1l-2.3 2.3c-.2-.1-.3-.2-.4-.3-1.5-.8-3.5-2-5.6-4.1s-3.3-4.2-4.1-5.6c-.1-.2-.2-.3-.3-.4l1.6-1.6.8-.8c1-1 1-2.5.1-3.4l-4.6-4.6c-.9-.9-2.5-.9-3.4.1l-1.3 1.3c-.4.5-.8 1.2-1.1 1.9s-.4 1.3-.4 2c-.6 5.1 1.7 9.8 8 16.2 8.7 8.7 15.8 8.1 16.1 8 .6-.1 1.3-.3 2-.4.7-.3 1.3-.6 1.9-1.1l1.3-1.3c.6-1.2.7-2.7-.3-3.7z"/><path class="st5" d="M152.3 1234.4c-.5 0-1 .2-1.3.4l13 10.2c.7.5 1.3.5 2.2 0l12.9-10.2c-.4-.2-.8-.4-1.3-.4h-25.5zm-2.1 1.5c-.2.4-.2.7-.2 1v13c0 1.3 1 2.3 2.3 2.3h25.3c1.3 0 2.3-1 2.3-2.3v-13c0-.4 0-.7-.2-1l-12.9 10.2c-1.2.8-2.7.8-3.8 0l-12.8-10.2z" transform="translate(0 -952.362)"/><path class="st18" d="M0 296h30v30H0z"/><path id="Chevron_Right" class="st5" d="M10.7 309.4l7.4 7.4c.3.3.8.3 1.2 0 .3-.3.3-.8 0-1.2l-6.7-6.7 6.7-6.7c.3-.3.3-.8 0-1.2-.3-.3-.8-.3-1.2 0l-7.4 7.4c-.3.1-.3.7 0 1z"/></svg>