<svg width="36" height="38" viewBox="0 0 36 38" fill="none" xmlns="http://www.w3.org/2000/svg">
<path d="M30.638 16.751H5.3615C3.20831 16.751 1.45703 18.5025 1.45703 20.6557V24.2721V25.4303L2.6029 25.5943C3.26515 25.6893 3.765 26.2654 3.765 26.9342C3.765 27.603 3.26543 28.1792 2.60348 28.2741L1.45703 28.4381V29.5964V33.2134C1.45703 35.366 3.20831 37.1175 5.3615 37.1175H30.638C32.7912 37.1175 34.5428 35.366 34.5428 33.2134V29.6206V28.3456L33.269 28.286C32.5453 28.2524 31.978 27.6585 31.978 26.9343C31.978 26.2106 32.5453 25.6168 33.2695 25.5825L34.5428 25.5224V24.2479V20.6557C34.5428 18.5025 32.7912 16.751 30.638 16.751ZM33.2064 24.2479C31.7793 24.3158 30.6422 25.4905 30.6422 26.9343C30.6422 28.3786 31.7793 29.5539 33.2064 29.6206V33.2134C33.2064 34.6317 32.0564 35.7817 30.638 35.7817H5.3615C3.94283 35.7817 2.79284 34.6317 2.79284 33.2134V29.5964C4.09711 29.4094 5.10081 28.2907 5.10081 26.9342C5.10081 25.5783 4.09703 24.4596 2.79284 24.2721V20.6557C2.79284 19.2368 3.94283 18.0868 5.3615 18.0868H30.638C32.0564 18.0868 33.2064 19.2368 33.2064 20.6557V24.2479Z" fill="#6323E9"/>
<path d="M10.0126 31.8555H9.12891V34.1608H10.0126V31.8555Z" fill="#6323E9"/>
<path d="M10.0126 27.8066H9.12891V30.1114H10.0126V27.8066Z" fill="#6323E9"/>
<path d="M10.0126 23.7568H9.12891V26.0622H10.0126V23.7568Z" fill="#6323E9"/>
<path d="M10.0126 19.708H9.12891V22.0133H10.0126V19.708Z" fill="#6323E9"/>
<path d="M7.50667 13.1045L6.73438 13.5338L7.85523 15.5478L8.62724 15.1185L7.50667 13.1045Z" fill="#6323E9"/>
<path d="M35.5094 12.9785L33.7626 9.83867L33.1422 8.72514L32.0005 9.29249C31.3518 9.61452 30.5674 9.37151 30.2159 8.7387C29.8632 8.10646 30.0708 7.31148 30.6865 6.92993L31.7705 6.25819L31.15 5.14407L29.4038 2.00545C28.3569 0.124259 25.9749 -0.55517 24.093 0.492247L2.00556 12.7809C0.123932 13.8277 -0.554844 16.2103 0.491993 18.0917L0.555426 18.206C0.792487 17.7425 1.09407 17.3185 1.44886 16.944C1.10067 15.8099 1.5766 14.5484 2.6549 13.948L24.7429 1.65928C25.9826 0.969268 27.5466 1.41512 28.2367 2.65479L29.9829 5.794C28.7686 6.5465 28.3463 8.12705 29.0481 9.38848C29.7499 10.65 31.3151 11.1242 32.5949 10.4884L34.3417 13.6283C34.869 14.5748 34.7286 15.7084 34.0828 16.4992C34.4291 16.7864 34.7345 17.1196 34.9999 17.4829C36.0804 16.277 36.3399 14.4712 35.5094 12.9785Z" fill="#6323E9"/>
</svg>
