<?xml version="1.0" encoding="utf-8"?>
<!-- Generator: Adobe Illustrator 25.2.1, SVG Export Plug-In . SVG Version: 6.00 Build 0)  -->
<svg version="1.1" id="Layer_1" xmlns="http://www.w3.org/2000/svg" xmlns:xlink="http://www.w3.org/1999/xlink" x="0px" y="0px"
	 viewBox="0 0 512 512" style="enable-background:new 0 0 512 512;" xml:space="preserve">
<style type="text/css">
	.st0{fill:#F3D55B;}
	.st1{fill:#F0C419;}
	.st2{fill:#F29C1F;}
	.st3{fill:#ECF0F1;}
	.st4{fill:#FFFFFF;}
	.st5{fill:#BDC3C7;}
	.st6{fill:#95A5A5;}
	.st7{fill:#FF5364;}
	.st8{fill:#FB7B76;}
	.st9{fill:#DF4D60;}
</style>
<g id="Page-1">
	<g id="_x30_16---Certificate">
		<path id="Shape" class="st0" d="M506.8,31.7c-3.3-3.4-7.8-5.2-12.4-5.2H17.7c-4.7,0-9.2,1.9-12.4,5.2C1.9,35,0,39.5,0,44.1v370.8
			c0,4.7,1.9,9.2,5.2,12.4c3.3,3.4,7.8,5.2,12.4,5.2h467.9c14.6,0,26.5-11.9,26.5-26.5V44.1C512,39.5,510.1,35,506.8,31.7z"/>
		<path id="Shape_1_" class="st1" d="M512,44.1v361.9c0,7-2.8,13.8-7.8,18.7l-36.4-36.4V70.6l38.9-38.9C510.1,35,512,39.5,512,44.1z
			"/>
		<path id="Shape_2_" class="st1" d="M44.1,70.6v317.8L5.2,427.3c-3.4-3.3-5.2-7.8-5.2-12.4V44.1c0-4.7,1.9-9.2,5.2-12.4L44.1,70.6z
			"/>
		<path id="Shape_3_" class="st2" d="M504.2,424.8c-5,5-11.7,7.8-18.7,7.8H17.7c-4.7,0-9.2-1.9-12.4-5.2l38.9-38.9h423.7
			L504.2,424.8z"/>
		<path id="Rectangle-path" class="st3" d="M44.1,70.6h423.7v317.8H44.1V70.6z"/>
		<path id="Shape_4_" class="st4" d="M467.9,70.6c0,0-423.7,0-423.7,317.8V70.6H467.9z"/>
		<path id="Shape_5_" class="st5" d="M317.8,132.4H194.2c-4.9,0-8.8-4-8.8-8.8c0-4.9,4-8.8,8.8-8.8h123.6c4.9,0,8.8,4,8.8,8.8
			C326.6,128.5,322.7,132.4,317.8,132.4z"/>
		<path id="Shape_6_" class="st6" d="M229.5,326.6H105.9c-4.9,0-8.8-4-8.8-8.8s4-8.8,8.8-8.8h123.6c4.9,0,8.8,4,8.8,8.8
			S234.4,326.6,229.5,326.6z"/>
		<path id="Shape_7_" class="st5" d="M344.3,176.6H167.7c-4.9,0-8.8-4-8.8-8.8s4-8.8,8.8-8.8h176.6c4.9,0,8.8,4,8.8,8.8
			S349.2,176.6,344.3,176.6z"/>
		<path id="Shape_8_" class="st7" d="M309,356.6l0,114.6c0,3.1,1.6,5.9,4.2,7.6c2.6,1.6,5.9,1.8,8.6,0.4l23-11.6
			c2.5-1.2,5.4-1.2,7.9,0l23,11.6c2.7,1.4,6,1.2,8.6-0.4c2.6-1.6,4.2-4.5,4.2-7.6l0-114.6H309z"/>
		<path id="Shape_9_" class="st6" d="M229.5,291.3c-21.6,0-42.9-5.6-61.7-16.2c-18.9,10.7-40.2,16.3-61.9,16.2c-4.9,0-8.8-4-8.8-8.8
			s4-8.8,8.8-8.8c15.8,0.1,31.5-3.4,45.8-10.1c-9.2-7-15-17.5-16.2-29c0-5.3,2.3-22.7,32.2-22.7s32.2,17.4,32.2,22.7
			c-1.2,11.5-7,22-16.2,29.1c14.3,6.7,30,10.1,45.8,10c4.9,0,8.8,4,8.8,8.8S234.4,291.3,229.5,291.3z M167.7,229.5
			c-6.7,0-14.5,1.3-14.5,5.1c0,3.7,4,11.3,14.5,19.4c9.4-7.2,14.6-14.7,14.6-19.4C182.3,230.8,174.4,229.5,167.7,229.5L167.7,229.5z
			"/>
		<path id="Shape_10_" class="st8" d="M432.6,295.7c0,10.2-19,16.5-22.7,25.3c-3.8,9.2,5,27-1.9,34c-6.9,6.9-24.8-1.9-34,1.9
			c-8.9,3.7-15.2,22.7-25.3,22.7c-10.2,0-16.5-19-25.3-22.7c-9.2-3.8-27,5-34-1.9c-6.9-6.9,1.9-24.8-1.9-34
			c-3.7-8.9-22.7-15.2-22.7-25.3c0-10.2,19-16.5,22.7-25.3c3.8-9.2-5-27,1.9-34c6.9-6.9,24.8,1.9,34-1.9
			c8.8-3.7,15.2-22.7,25.3-22.7c10.2,0,16.5,19,25.3,22.7c9.2,3.8,27-5,34,1.9c6.9,6.9-1.9,24.8,1.9,34
			C413.5,279.2,432.6,285.5,432.6,295.7z"/>
		<circle id="Oval" class="st9" cx="348.7" cy="295.7" r="30.9"/>
	</g>
</g>
</svg>
