<?xml version="1.0" encoding="utf-8"?>
<!-- Generator: Adobe Illustrator 25.2.1, SVG Export Plug-In . SVG Version: 6.00 Build 0)  -->
<svg version="1.1" id="Layer_1" xmlns="http://www.w3.org/2000/svg" xmlns:xlink="http://www.w3.org/1999/xlink" x="0px" y="0px"
	 viewBox="0 0 69.9 79.7" style="enable-background:new 0 0 69.9 79.7;" xml:space="preserve">
<style type="text/css">
	.st0{display:none;}
	.st1{display:inline;fill:#E2E5E7;}
	.st2{display:inline;fill:#B0B7BD;}
	.st3{display:inline;fill:#CAD1D8;}
	.st4{display:inline;fill:#F15642;}
	.st5{display:inline;}
	.st6{fill:#FFFFFF;}
	.st7{fill:#E1E6E9;}
	.st8{fill:#27A2DB;}
	.st9{fill:#EBF0F3;}
	.st10{fill:#2D93BA;}
	.st11{fill:#D5D6DB;}
</style>
<g class="st0">
	<path class="st1" d="M15.1,0c-2.7,0-5,2.2-5,5v69.7c0,2.7,2.2,5,5,5h49.8c2.7,0,5-2.2,5-5V19.9L49.9,0H15.1z"/>
	<path class="st2" d="M54.9,19.9h14.9L49.9,0v14.9C49.9,17.7,52.2,19.9,54.9,19.9z"/>
	<polygon class="st3" points="69.9,34.8 54.9,19.9 69.9,19.9 	"/>
	<path class="st4" d="M59.9,64.7c0,1.4-1.1,2.5-2.5,2.5H2.6c-1.4,0-2.5-1.1-2.5-2.5V39.8c0-1.4,1.1-2.5,2.5-2.5h54.8
		c1.4,0,2.5,1.1,2.5,2.5V64.7z"/>
	<g class="st5">
		<path class="st6" d="M11,47.2c0-0.7,0.5-1.4,1.4-1.4h4.6c2.6,0,4.9,1.7,4.9,5.1c0,3.1-2.3,4.9-4.9,4.9h-3.3v2.6
			c0,0.9-0.6,1.4-1.3,1.4c-0.7,0-1.4-0.5-1.4-1.4V47.2z M13.6,48.3v5h3.3c1.3,0,2.4-1.2,2.4-2.4c0-1.4-1.1-2.5-2.4-2.5H13.6z"/>
		<path class="st6" d="M25.8,59.7c-0.7,0-1.4-0.4-1.4-1.2V47.2c0-0.7,0.7-1.2,1.4-1.2h4.6c9.1,0,8.9,13.8,0.2,13.8H25.8z M27,48.4
			v8.9h3.3c5.4,0,5.6-8.9,0-8.9L27,48.4L27,48.4z"/>
		<path class="st6" d="M42.5,48.6v3.2h5.1c0.7,0,1.4,0.7,1.4,1.4c0,0.7-0.7,1.2-1.4,1.2h-5.1v4.2c0,0.7-0.5,1.2-1.2,1.2
			c-0.9,0-1.4-0.5-1.4-1.2V47.2c0-0.7,0.5-1.2,1.4-1.2h7c0.9,0,1.4,0.5,1.4,1.2c0,0.6-0.5,1.4-1.4,1.4L42.5,48.6L42.5,48.6z"/>
	</g>
	<path class="st3" d="M57.4,67.2H10.1v2.5h47.3c1.4,0,2.5-1.1,2.5-2.5v-2.5C59.9,66.1,58.8,67.2,57.4,67.2z"/>
</g>
<path class="st7" d="M49.2,0H8C6.2,0,4.8,1.4,4.8,3.2v73.3c0,1.8,1.4,3.2,3.2,3.2H60c1.8,0,3.2-1.4,3.2-3.2V14L49.2,0z"/>
<rect y="43.9" class="st8" width="63.2" height="21.8"/>
<g>
	<path class="st9" d="M22.9,50c1.3,1.2,1.9,2.8,1.9,4.9c0,2.1-0.6,3.7-1.9,4.9c-1.2,1.2-3.2,1.8-5.7,1.8h-4.4V48.2h4.6
		C19.7,48.2,21.6,48.8,22.9,50z M22.5,54.9c0-3.1-1.8-4.6-5.3-4.6H15v9.2h2.5c1.6,0,2.9-0.4,3.7-1.2C22.1,57.5,22.5,56.4,22.5,54.9z
		"/>
	<path class="st9" d="M38.9,59.7c-1.3,1.3-3,2-5,2s-3.7-0.7-5-2c-1.4-1.3-2-3-2-4.9c0-2,0.7-3.6,2-4.9c1.3-1.3,3-2,5-2
		c2,0,3.7,0.7,5,2c1.4,1.3,2,3,2,4.9C40.9,56.8,40.2,58.4,38.9,59.7z M37.2,51.4c-0.9-0.9-2-1.4-3.4-1.4c-1.3,0-2.4,0.5-3.4,1.4
		c-0.9,0.9-1.4,2.1-1.4,3.4s0.5,2.5,1.4,3.4c0.9,0.9,2,1.4,3.4,1.4c1.3,0,2.4-0.5,3.4-1.4c0.9-0.9,1.4-2.1,1.4-3.4
		S38.1,52.3,37.2,51.4z"/>
	<path class="st9" d="M49.8,59.5c0.8,0,1.4-0.1,2-0.4c0.6-0.3,1.1-0.7,1.8-1.3l1.5,1.5c-1.4,1.6-3.1,2.4-5.1,2.4c-2,0-3.7-0.6-5-1.9
		c-1.3-1.3-2-2.9-2-4.9c0-2,0.7-3.6,2-5c1.4-1.3,3.1-2,5.1-2c2.1,0,3.8,0.8,5.2,2.3l-1.4,1.6c-0.6-0.6-1.2-1-1.8-1.3
		c-0.6-0.2-1.2-0.4-2-0.4c-1.3,0-2.5,0.4-3.4,1.3c-0.9,0.9-1.4,2-1.4,3.3c0,1.4,0.5,2.5,1.4,3.4C47.5,59.1,48.6,59.5,49.8,59.5z"/>
</g>
<polygon class="st10" points="0,65.7 4.8,70.2 4.8,65.7 "/>
<polygon class="st9" points="49.2,14 63.2,14 49.2,0 "/>
<polygon class="st11" points="51.9,14 63.2,20.6 63.2,14 "/>
</svg>
