<?xml version="1.0" encoding="utf-8"?>
<!-- Generator: Adobe Illustrator 25.2.1, SVG Export Plug-In . SVG Version: 6.00 Build 0)  -->
<svg version="1.1" id="bold" xmlns="http://www.w3.org/2000/svg" xmlns:xlink="http://www.w3.org/1999/xlink" x="0px" y="0px"
	 viewBox="0 0 512 512" style="enable-background:new 0 0 512 512;" xml:space="preserve">
<style type="text/css">
	.st0{fill:#E92347;}
</style>
<path class="st0" d="M256,341.3c-4.4,0-8.6-1.8-11.6-4.9l-112-117.3c-9.7-10.2-2.5-27.1,11.6-27.1h58.7V69.3
	c0-14.7,12-26.7,26.7-26.7h53.3c14.7,0,26.7,12,26.7,26.7V192H368c14.1,0,21.3,16.9,11.6,27.1l-112,117.3
	C264.6,339.5,260.4,341.3,256,341.3z"/>
<path class="st0" d="M474.7,469.3H37.3C16.7,469.3,0,452.6,0,432v-10.7C0,400.7,16.7,384,37.3,384h437.3c20.6,0,37.3,16.7,37.3,37.3
	V432C512,452.6,495.3,469.3,474.7,469.3z"/>
</svg>
