<?xml version="1.0" encoding="utf-8"?>
<!-- Generator: Adobe Illustrator 25.2.1, SVG Export Plug-In . SVG Version: 6.00 Build 0)  -->
<svg version="1.1" id="Capa_1" xmlns="http://www.w3.org/2000/svg" xmlns:xlink="http://www.w3.org/1999/xlink" x="0px" y="0px"
	 viewBox="0 0 512 512" style="enable-background:new 0 0 512 512;" xml:space="preserve">
<style type="text/css">
	.st0{fill:#E6F7FF;}
	.st1{fill:#CCEEFF;}
	.st2{fill:#FFE666;}
	.st3{fill:#FABE2C;}
	.st4{fill:#FF9100;}
</style>
<g>
	<path class="st0" d="M195.4,436c0.7,4.1,0.6,9,0.6,15.1c0,34.2,26.4,60.9,60,60.9c33,0,60-27,60-60c0-7.1-0.1-11.9,0.6-16L256,406
		L195.4,436z"/>
	<path class="st1" d="M316,452c0-7.1-0.1-11.9,0.6-16L256,406v106C289,512,316,485,316,452z"/>
	<g id="Idea_2_">
		<g>
			<path class="st2" d="M363.7,307.3c-29.1,38.4-45.6,82.8-47.1,128.7H195.4c-1.8-44.4-18.3-88.5-49.2-131.7
				c-20.7-28.8-29.1-64.2-23.7-99.6C134.4,127.9,195.2,91,256,91.3c66.8,0.2,133.5,45.4,135,131.9
				C391.2,254.7,382.2,282.6,363.7,307.3L363.7,307.3z"/>
		</g>
		<g>
			<path class="st2" d="M256,61c-8.3,0-15-6.7-15-15V15c0-8.3,6.7-15,15-15c8.3,0,15,6.7,15,15v31C271,54.3,264.3,61,256,61z"/>
		</g>
		<g>
			<path class="st3" d="M398.9,143.5c-4.2-7.2-1.7-16.3,5.5-20.5l26-15c7.2-4.2,16.3-1.7,20.5,5.5c4.2,7.2,1.7,16.3-5.5,20.5l-26,15
				C412.1,153.1,403,150.6,398.9,143.5z"/>
		</g>
		<g>
			<path class="st2" d="M61.1,338.5c-4.2-7.2-1.7-16.3,5.5-20.5l26-15c7.1-4.1,16.3-1.7,20.5,5.5c4.2,7.2,1.7,16.3-5.5,20.5l-26,15
				C74.4,348.1,65.2,345.6,61.1,338.5z"/>
		</g>
		<g>
			<path class="st3" d="M338.5,83.1c-7.2-4.1-9.6-13.3-5.5-20.5l15-26c4.1-7.2,13.3-9.6,20.5-5.5c7.2,4.1,9.6,13.3,5.5,20.5l-15,26
				C354.9,84.8,345.7,87.2,338.5,83.1z"/>
		</g>
		<g>
			<path class="st2" d="M153,77.6l-15-26c-4.2-7.2-1.7-16.3,5.5-20.5c7.1-4.1,16.3-1.7,20.5,5.5l15,26c4.2,7.2,1.7,16.3-5.5,20.5
				C166.3,87.2,157.1,84.8,153,77.6z"/>
		</g>
		<g>
			<path class="st3" d="M430.4,344l-26-15c-7.2-4.1-9.6-13.3-5.5-20.5c4.1-7.2,13.4-9.6,20.5-5.5l26,15c7.2,4.1,9.6,13.3,5.5,20.5
				C446.8,345.6,437.6,348.2,430.4,344z"/>
		</g>
		<g>
			<path class="st2" d="M92.6,149l-26-15c-7.2-4.1-9.6-13.3-5.5-20.5c4.1-7.2,13.3-9.6,20.5-5.5l26,15c7.2,4.1,9.6,13.3,5.5,20.5
				C109,150.6,99.9,153.1,92.6,149z"/>
		</g>
		<g>
			<path class="st3" d="M466,241h-30c-8.3,0-15-6.7-15-15s6.7-15,15-15h30c8.3,0,15,6.7,15,15S474.3,241,466,241z"/>
		</g>
		<g>
			<path class="st2" d="M76,241H46c-8.3,0-15-6.7-15-15s6.7-15,15-15h30c8.3,0,15,6.7,15,15S84.3,241,76,241z"/>
		</g>
	</g>
	<g>
		<path class="st3" d="M271,46V15c0-8.3-6.7-15-15-15v61C264.3,61,271,54.3,271,46z"/>
		<path class="st3" d="M363.7,307.3c-29.1,38.4-45.6,82.8-47.1,128.7H256V91.3c66.8,0.2,133.5,45.4,135,131.9
			C391.2,254.7,382.2,282.6,363.7,307.3L363.7,307.3z"/>
		<path class="st3" d="M296.6,215.4c-5.9-5.9-15.4-5.9-21.2,0L256,234.8l-19.4-19.4c-5.9-5.9-15.4-5.9-21.2,0s-5.9,15.4,0,21.2
			l25.6,25.6V316c0,8.3,6.7,15,15,15c8.3,0,15-6.7,15-15v-53.8l25.6-25.6C302.5,230.7,302.5,221.3,296.6,215.4z"/>
	</g>
	<path class="st4" d="M271,316v-53.8l25.6-25.6c5.9-5.9,5.9-15.4,0-21.2s-15.4-5.9-21.2,0L256,234.8V331
		C264.3,331,271,324.3,271,316z"/>
</g>
</svg>
