<?xml version="1.0" encoding="utf-8"?>
<!-- Generator: Adobe Illustrator 25.2.1, SVG Export Plug-In . SVG Version: 6.00 Build 0)  -->
<svg version="1.1" id="Layer_1" xmlns="http://www.w3.org/2000/svg" xmlns:xlink="http://www.w3.org/1999/xlink" x="0px" y="0px"
	 viewBox="0 0 69.9 79.7" style="enable-background:new 0 0 69.9 79.7;" xml:space="preserve">
<style type="text/css">
	.st0{fill:#E2E5E7;}
	.st1{fill:#B0B7BD;}
	.st2{fill:#CAD1D8;}
	.st3{fill:#F15642;}
	.st4{fill:#FFFFFF;}
</style>
<g>
	<path class="st0" d="M15.1,0c-2.7,0-5,2.2-5,5v69.7c0,2.7,2.2,5,5,5h49.8c2.7,0,5-2.2,5-5V19.9L49.9,0H15.1z"/>
	<path class="st1" d="M54.9,19.9h14.9L49.9,0v14.9C49.9,17.7,52.2,19.9,54.9,19.9z"/>
	<polygon class="st2" points="69.9,34.8 54.9,19.9 69.9,19.9 	"/>
	<path class="st3" d="M59.9,64.7c0,1.4-1.1,2.5-2.5,2.5H2.6c-1.4,0-2.5-1.1-2.5-2.5V39.8c0-1.4,1.1-2.5,2.5-2.5h54.8
		c1.4,0,2.5,1.1,2.5,2.5V64.7z"/>
	<g>
		<path class="st4" d="M11,47.2c0-0.7,0.5-1.4,1.4-1.4h4.6c2.6,0,4.9,1.7,4.9,5.1c0,3.1-2.3,4.9-4.9,4.9h-3.3v2.6
			c0,0.9-0.6,1.4-1.3,1.4c-0.7,0-1.4-0.5-1.4-1.4V47.2z M13.6,48.3v5h3.3c1.3,0,2.4-1.2,2.4-2.4c0-1.4-1.1-2.5-2.4-2.5H13.6z"/>
		<path class="st4" d="M25.8,59.7c-0.7,0-1.4-0.4-1.4-1.2V47.2c0-0.7,0.7-1.2,1.4-1.2h4.6c9.1,0,8.9,13.8,0.2,13.8H25.8z M27,48.4
			v8.9h3.3c5.4,0,5.6-8.9,0-8.9L27,48.4L27,48.4z"/>
		<path class="st4" d="M42.5,48.6v3.2h5.1c0.7,0,1.4,0.7,1.4,1.4c0,0.7-0.7,1.2-1.4,1.2h-5.1v4.2c0,0.7-0.5,1.2-1.2,1.2
			c-0.9,0-1.4-0.5-1.4-1.2V47.2c0-0.7,0.5-1.2,1.4-1.2h7c0.9,0,1.4,0.5,1.4,1.2c0,0.6-0.5,1.4-1.4,1.4L42.5,48.6L42.5,48.6z"/>
	</g>
	<path class="st2" d="M57.4,67.2H10.1v2.5h47.3c1.4,0,2.5-1.1,2.5-2.5v-2.5C59.9,66.1,58.8,67.2,57.4,67.2z"/>
</g>
</svg>
