<?xml version="1.0" encoding="utf-8"?>
<!-- Generator: Adobe Illustrator 25.2.1, SVG Export Plug-In . SVG Version: 6.00 Build 0)  -->
<svg version="1.1" id="Layer_2" xmlns="http://www.w3.org/2000/svg" xmlns:xlink="http://www.w3.org/1999/xlink" x="0px" y="0px"
	 viewBox="0 0 69.9 56.4" style="enable-background:new 0 0 69.9 56.4;" xml:space="preserve">
<style type="text/css">
	.st0{fill:#8AC9FE;}
	.st1{fill:#60B7FF;}
	.st2{fill:#FEF0AE;}
	.st3{fill:#FEE97D;}
	.st4{fill:#FEE45A;}
	.st5{fill:#FED402;}
	.st6{fill:#97DA7B;}
	.st7{fill:#80D261;}
	.st8{fill:#EAF6FF;}
	.st9{fill:#D8ECFE;}
</style>
<g>
	<g>
		<g>
			<path class="st0" d="M21.9,7.8V1h16c0.8,0,1.5,0.5,1.8,1.3l2.2,5.5L21.9,7.8L21.9,7.8z"/>
		</g>
		<g>
			<path class="st1" d="M41.9,7.8h-3l-2.2-5.5c-0.3-0.8-1-1.2-1.8-1.2h3c0.8,0,1.5,0.5,1.8,1.2L41.9,7.8z"/>
		</g>
		<g>
			<path class="st2" d="M56.2,7.8H27.3c-0.8,0-1.5-0.5-1.8-1.3l-1.7-4.3C23.5,1.5,22.8,1,22,1H8C6.9,1,6,1.9,6,3v2.8
				c0,1.1-0.9,2-2,2H3.8c-1.5,0-2.6,1.2-2.6,2.6V51c0,2.4,2,4.4,4.4,4.4h53.3v-45C58.9,8.9,57.7,7.8,56.2,7.8L56.2,7.8z"/>
		</g>
		<g>
			<path class="st3" d="M58.9,13.8v41.6H5.6c-0.5,0-0.9-0.1-1.4-0.2c1.8-0.6,3-2.2,3-4.2V16.5c0-1.5,1.2-2.6,2.6-2.6L58.9,13.8
				L58.9,13.8z"/>
		</g>
		<g>
			<path class="st3" d="M27.3,7.8h-2.7c-0.8,0-1.5-0.5-1.8-1.3l-1.7-4.3c-0.3-0.8-1-1.2-1.8-1.2H22c0.8,0,1.5,0.5,1.8,1.2l1.7,4.3
				C25.8,7.3,26.5,7.8,27.3,7.8z"/>
		</g>
		<g>
			<path class="st4" d="M12.7,13.8H62c1.5,0,2.6,1.2,2.6,2.6v36.3c0,1.5-1.2,2.6-2.6,2.6H10H5.6c2.4,0,4.4-2,4.4-4.4V16.5
				C10,15,11.2,13.8,12.7,13.8L12.7,13.8z"/>
		</g>
		<g>
			<path class="st5" d="M64.6,16.5v36.3c0,1.5-1.2,2.6-2.6,2.6h-2.6c1.5,0,2.6-1.2,2.6-2.6V16.5c0-1.5-1.2-2.6-2.6-2.6H62
				C63.4,13.8,64.6,15,64.6,16.5L64.6,16.5z"/>
		</g>
	</g>
	<g>
		<circle class="st6" cx="55.3" cy="13.8" r="12.4"/>
	</g>
	<g>
		<path class="st7" d="M67.6,13.8c0,6.8-5.5,12.4-12.4,12.4c-2.7,0-5.2-0.9-7.2-2.3c1.5,0.6,3.1,1,4.9,1c6.8,0,12.4-5.5,12.4-12.4
			c0-4.1-2-7.8-5.1-10C64.5,4.4,67.6,8.7,67.6,13.8z"/>
	</g>
	<g>
		<path class="st8" d="M61.5,12l-4.7-5.3C56.4,6.3,55.8,6,55.3,6c-0.6,0-1.1,0.2-1.5,0.7L49.1,12c-0.7,0.8-0.7,2.1,0.2,2.8
			c0.8,0.7,2.1,0.7,2.8-0.2l1.2-1.4v6.4c0,1.1,0.9,2,2,2s2-0.9,2-2v-6.4l1.2,1.4c0.4,0.4,0.9,0.7,1.5,0.7c0.5,0,0.9-0.2,1.3-0.5
			C62.1,14.1,62.2,12.8,61.5,12z"/>
	</g>
	<g>
		<path class="st9" d="M56.4,14.6c0.2,0.3,0.5,0.4,0.8,0.6v4.5c0,1.1-0.9,2-2,2c-0.4,0-0.7-0.1-1-0.3c0.6-0.3,1-1,1-1.7V15
			C55.2,14.4,56,14.1,56.4,14.6L56.4,14.6z"/>
	</g>
	<g>
		<path class="st9" d="M61.3,14.8c-0.4,0.3-0.9,0.5-1.3,0.5c-0.4,0-0.7-0.1-1-0.3c0.1-0.1,0.2-0.1,0.3-0.2c0.8-0.7,0.9-2,0.2-2.8
			l-4.7-5.3c-0.1-0.2-0.3-0.3-0.5-0.4c0.3-0.2,0.7-0.3,1-0.3c0.6,0,1.1,0.2,1.5,0.7l4.7,5.3C62.2,12.8,62.1,14.1,61.3,14.8
			L61.3,14.8z"/>
	</g>
	<g>
		<path d="M16.3,44.1h8.7c0.6,0,1-0.4,1-1s-0.4-1-1-1h-8.7c-0.6,0-1,0.4-1,1S15.7,44.1,16.3,44.1z"/>
		<path d="M16.3,48.2H30c0.6,0,1-0.4,1-1s-0.4-1-1-1H16.3c-0.6,0-1,0.4-1,1S15.7,48.2,16.3,48.2z"/>
		<path d="M55.3,0.5c-4.8,0-9,2.5-11.3,6.3h-1.3l-1.9-4.9C40.2,0.7,39.1,0,37.9,0H8C6.3,0,5,1.3,5,3v2.8c0,0.5-0.4,1-1,1H3.8
			c-2,0-3.6,1.6-3.6,3.6V51c0,3,2.4,5.4,5.4,5.4h0h0H62c2,0,3.6-1.6,3.6-3.6v-7c0-0.6-0.4-1-1-1c-0.6,0-1,0.4-1,1v7
			c0,0.9-0.7,1.6-1.6,1.6H9.8c0.8-0.9,1.2-2.1,1.2-3.4V16.5c0-0.9,0.7-1.6,1.6-1.6h10.7c0.6,0,1-0.4,1-1c0-0.6-0.4-1-1-1H12.7
			c-2,0-3.6,1.6-3.6,3.6V51c0,1.9-1.5,3.4-3.4,3.4h0h0c-1.9,0-3.4-1.5-3.4-3.4V10.4c0-0.9,0.7-1.6,1.6-1.6H4c1.6,0,3-1.3,3-3V3
			c0-0.5,0.4-1,1-1h14c0.4,0,0.8,0.2,0.9,0.6l1.7,4.3C25,8,26.1,8.8,27.3,8.8h15.6c-0.5,1.3-0.9,2.6-1,4.1H28c-0.6,0-1,0.4-1,1
			c0,0.6,0.4,1,1,1h14c0.5,6.9,6.3,12.4,13.3,12.4c3.2,0,6.1-1.1,8.3-2.9v16.9c0,0.6,0.4,1,1,1c0.6,0,1-0.4,1-1V22.3
			c1.9-2.3,3-5.2,3-8.4C68.6,6.5,62.6,0.5,55.3,0.5L55.3,0.5z M27.3,6.8c-0.4,0-0.8-0.2-0.9-0.6L24.8,2h13.1c0.4,0,0.8,0.2,0.9,0.6
			l1.6,4.1L27.3,6.8L27.3,6.8z M55.3,25.2c-6.3,0-11.4-5.1-11.4-11.4S49,2.5,55.3,2.5s11.4,5.1,11.4,11.4S61.5,25.2,55.3,25.2
			L55.3,25.2z"/>
		<path d="M57.5,6c-0.6-0.6-1.4-1-2.2-1S53.6,5.4,53,6l-4.7,5.3c-0.5,0.6-0.8,1.4-0.8,2.2c0,0.8,0.4,1.5,1,2.1
			c0.6,0.5,1.4,0.8,2.2,0.8c0.6,0,1.1-0.2,1.5-0.5v3.9c0,1.7,1.3,3,3,3s3-1.3,3-3v-3.9c0.5,0.3,1.1,0.5,1.7,0.5c0.7,0,1.4-0.3,2-0.8
			c0.6-0.5,1-1.3,1-2.1c0-0.8-0.2-1.6-0.8-2.2L57.5,6z M61,13.4c0,0.3-0.1,0.5-0.3,0.7c-0.2,0.2-0.4,0.3-0.7,0.3
			c-0.3,0-0.6-0.1-0.7-0.3L58,12.6c-0.3-0.3-0.7-0.4-1.1-0.3c-0.4,0.1-0.6,0.5-0.6,0.9v6.4c0,0.6-0.4,1-1,1c-0.6,0-1-0.4-1-1v-6.4
			c0-0.4-0.3-0.8-0.6-0.9c-0.1,0-0.2-0.1-0.4-0.1c-0.3,0-0.6,0.1-0.7,0.3L51.3,14c-0.2,0.2-0.4,0.3-0.7,0.3c-0.3,0-0.5-0.1-0.7-0.3
			c-0.2-0.2-0.3-0.4-0.3-0.7c0-0.3,0.1-0.5,0.3-0.7l4.7-5.3C54.7,7.1,55,7,55.3,7s0.6,0.1,0.7,0.3l4.7,5.3
			C60.9,12.8,61,13.1,61,13.4L61,13.4z"/>
	</g>
</g>
</svg>
