<?xml version="1.0" encoding="utf-8"?>
<!-- Generator: Adobe Illustrator 25.2.1, SVG Export Plug-In . SVG Version: 6.00 Build 0)  -->
<svg version="1.1" id="Layer_2" xmlns="http://www.w3.org/2000/svg" xmlns:xlink="http://www.w3.org/1999/xlink" x="0px" y="0px"
	 viewBox="0 0 69.9 56.4" style="enable-background:new 0 0 69.9 56.4;" xml:space="preserve">
<style type="text/css">
	.st0{fill:#E0E0E2;}
	.st1{fill:#D80027;}
	.st2{fill:#787680;}
	.st3{fill:#FFDA44;}
</style>
<g>
	<g>
		<path class="st0" d="M6.8,1.1h56.4v54.1H6.8V1.1z"/>
		<path class="st1" d="M13.5,6.8h42.9v33.8H13.5V6.8z"/>
		<path class="st2" d="M6.8,1.1v54.1H3.9c-1.6,0-2.8-1.3-2.8-2.8c0,0,0,0,0,0V3.9c0-1.6,1.3-2.8,2.8-2.8c0,0,0,0,0,0H6.8z"/>
		<path class="st2" d="M68.8,3.9v48.5c0,1.6-1.3,2.8-2.8,2.8c0,0,0,0,0,0h-2.8V1.1H66C67.5,1.1,68.8,2.4,68.8,3.9
			C68.8,3.9,68.8,3.9,68.8,3.9z"/>
		<path class="st0" d="M30.4,30.4V16.9l11.3,6.8L30.4,30.4z"/>
		<circle class="st3" cx="23.7" cy="47.4" r="2.3"/>
	</g>
	<g>
		<path d="M66,0h-62C1.8,0,0,1.8,0,3.9v48.5c0,2.2,1.8,3.9,3.9,3.9h62c2.2,0,3.9-1.8,3.9-3.9V3.9C69.9,1.8,68.2,0,66,0z M5.6,54.1
			H3.9c-0.9,0-1.7-0.8-1.7-1.7v-0.6h3.4V54.1z M5.6,49.6H2.3v-2.3h3.4V49.6z M5.6,45.1H2.3v-2.3h3.4V45.1z M5.6,40.6H2.3v-2.3h3.4
			V40.6z M5.6,36.1H2.3v-2.3h3.4V36.1z M5.6,31.6H2.3v-2.3h3.4V31.6z M5.6,27.1H2.3v-2.3h3.4V27.1z M5.6,22.6H2.3v-2.3h3.4V22.6z
			 M5.6,18H2.3v-2.3h3.4V18z M5.6,13.5H2.3v-2.3h3.4V13.5z M5.6,9H2.3V6.8h3.4V9z M5.6,4.5H2.3V3.9C2.3,3,3,2.3,3.9,2.3h1.7V4.5z
			 M62,54.1H7.9V2.3H62V54.1z M67.7,52.4c0,0.9-0.8,1.7-1.7,1.7h-1.7v-2.3h3.4V52.4z M67.7,49.6h-3.4v-2.3h3.4V49.6z M67.7,45.1
			h-3.4v-2.3h3.4V45.1z M67.7,40.6h-3.4v-2.3h3.4V40.6z M67.7,36.1h-3.4v-2.3h3.4V36.1z M67.7,31.6h-3.4v-2.3h3.4V31.6z M67.7,27.1
			h-3.4v-2.3h3.4V27.1z M67.7,22.6h-3.4v-2.3h3.4V22.6z M67.7,18h-3.4v-2.3h3.4V18z M67.7,13.5h-3.4v-2.3h3.4V13.5z M67.7,9h-3.4
			V6.8h3.4V9z M67.7,4.5h-3.4V2.3H66c0.9,0,1.7,0.8,1.7,1.7V4.5z"/>
		<path d="M29.9,31.4c0.4,0.2,0.8,0.2,1.1,0l11.3-6.8c0.5-0.3,0.7-1,0.4-1.5c-0.1-0.2-0.2-0.3-0.4-0.4L31,15.9
			c-0.5-0.3-1.2-0.1-1.5,0.4c-0.1,0.2-0.2,0.4-0.2,0.6v13.5C29.3,30.9,29.5,31.2,29.9,31.4L29.9,31.4z M31.6,18.9l8,4.8l-8,4.8
			L31.6,18.9z"/>
		<path d="M55.3,46.2H26.9c-0.6-1.8-2.6-2.7-4.3-2.1c-1,0.3-1.7,1.1-2.1,2.1h-5.8c-0.6,0-1.1,0.5-1.1,1.1s0.5,1.1,1.1,1.1h5.8
			c0.6,1.8,2.6,2.7,4.3,2.1c1-0.3,1.7-1.1,2.1-2.1h28.4c0.6,0,1.1-0.5,1.1-1.1S55.9,46.2,55.3,46.2z M23.7,48.5
			c-0.6,0-1.1-0.5-1.1-1.1s0.5-1.1,1.1-1.1c0.6,0,1.1,0.5,1.1,1.1C24.8,48,24.3,48.5,23.7,48.5z"/>
		<path d="M56.4,5.6H13.5c-0.6,0-1.1,0.5-1.1,1.1v33.8c0,0.6,0.5,1.1,1.1,1.1h42.9c0.6,0,1.1-0.5,1.1-1.1V6.8
			C57.5,6.1,57,5.6,56.4,5.6z M55.3,39.5H14.7V7.9h40.6V39.5z"/>
	</g>
</g>
</svg>
