<?xml version="1.0" encoding="utf-8"?>
<!-- Generator: Adobe Illustrator 25.2.1, SVG Export Plug-In . SVG Version: 6.00 Build 0)  -->
<svg version="1.1" id="Layer_1" xmlns="http://www.w3.org/2000/svg" xmlns:xlink="http://www.w3.org/1999/xlink" x="0px" y="0px"
	 width="20px" height="70.9px" viewBox="0 0 20 70.9" style="enable-background:new 0 0 20 70.9;" xml:space="preserve">
<style type="text/css">
	.st0{fill:#A5A4A4;}
	.st1{fill:#010101;}
	.st2{fill:#88898B;}
	.st3{fill:#565656;}
</style>
<g>
	<path class="st0" d="M12.1,2.3C11.5,1.6,10.8,1,9.8,0.6S7.7,0,6.5,0S4.2,0.2,3.2,0.6s-1.8,1-2.4,1.7C0.3,3,0,3.8,0,4.6
		c0,0.7,0.2,1.4,0.7,2c0.4,0.6,1,1.2,1.8,1.6C2.4,8.5,2.3,8.7,2.3,8.8C2.2,9,2.1,9.1,2.1,9.3C2,9.4,1.9,9.5,1.8,9.6
		C1.7,9.8,1.7,9.9,1.6,9.9C1.5,10,1.5,10,1.3,10.2c-0.1,0.1-0.2,0.2-0.2,0.3c0,0,0,0-0.1,0.1l-0.1,0.1v0.1v0.1c0,0,0,0,0,0.1v0.1
		l0,0C1,10.9,1,11,1.1,11.1s0.1,0.1,0.2,0.1l0,0c0.3,0,0.6-0.1,0.8-0.2c1.3-0.3,2.4-0.9,3.3-1.8c0.4,0,0.7,0.1,1.1,0.1
		c1.2,0,2.3-0.2,3.3-0.6c1-0.4,1.8-1,2.4-1.7C12.7,6.3,13,5.5,13,4.6C13,3.8,12.7,3,12.1,2.3z M11.3,6.5c-0.5,0.6-1.2,1-2,1.4
		C8.4,8.2,7.5,8.4,6.5,8.4c-0.3,0-0.6,0-0.9-0.1H5.2L4.8,8.5C4.2,9,3.5,9.4,2.8,9.7C3.1,9.4,3.2,9,3.3,8.5l0.2-0.7L2.9,7.5
		C2.3,7.1,1.8,6.7,1.4,6.2c-0.3-0.5-0.5-1-0.5-1.5c0-0.7,0.3-1.3,0.8-1.8c0.5-0.6,1.2-1,2-1.4C4.6,1.2,5.5,1,6.5,1s1.9,0.2,2.8,0.5
		c0.9,0.3,1.5,0.8,2,1.4s0.8,1.2,0.8,1.8S11.8,5.9,11.3,6.5z"/>
</g>
<g>
	<path class="st1" d="M16.9,40.7L12,35.9c-0.1-0.1-0.3-0.2-0.4-0.2s-0.3,0.1-0.4,0.2C11.1,36,11,36.1,11,36.3v2.4H8.9
		c-4.5,0-7.3,1.3-8.3,3.8c-0.3,0.8-0.5,1.9-0.5,3.2c0,1.1,0.4,2.5,1.2,4.3c0,0,0.1,0.1,0.1,0.2c0,0.1,0.1,0.2,0.1,0.3
		s0.1,0.2,0.1,0.2c0.1,0.1,0.2,0.2,0.3,0.2s0.2,0,0.2-0.1c0.1-0.1,0.1-0.1,0.1-0.2c0-0.1,0-0.1,0-0.3c0-0.1,0-0.2,0-0.2
		c0-0.4,0-0.8,0-1.2c0-0.6,0.1-1.2,0.2-1.7c0.1-0.5,0.3-0.9,0.5-1.3c0.2-0.4,0.4-0.7,0.8-1c0.3-0.3,0.6-0.5,1-0.7s0.8-0.3,1.3-0.4
		c0.5-0.1,1-0.2,1.5-0.2s1-0.1,1.7-0.1H11V46c0,0.2,0.1,0.3,0.2,0.4c0.1,0.1,0.3,0.2,0.4,0.2c0.2,0,0.3-0.1,0.4-0.2l4.9-4.9
		c0.1-0.1,0.2-0.3,0.2-0.4C17.1,41,17,40.9,16.9,40.7z"/>
</g>
<path class="st2" d="M10,16.8c-0.5,0-1-0.4-1-1V14c0-0.5,0.4-1,1-1s1,0.4,1,1v1.8C11,16.4,10.6,16.8,10,16.8z"/>
<path class="st2" d="M10,33.1c-0.5,0-1-0.4-1-1v-1.8c0-0.5,0.4-1,1-1s1,0.4,1,1v1.8C11,32.7,10.6,33.1,10,33.1z"/>
<path class="st2" d="M6.4,17.8c-0.3,0-0.6-0.2-0.8-0.5l-0.9-1.5c-0.3-0.5-0.1-1.1,0.4-1.3c0.5-0.3,1.1-0.1,1.3,0.4l0.9,1.5
	c0.3,0.5,0.1,1.1-0.4,1.3C6.7,17.8,6.5,17.8,6.4,17.8z"/>
<path class="st2" d="M14.5,31.9c-0.3,0-0.6-0.2-0.8-0.5l-0.9-1.5c-0.3-0.5-0.1-1.1,0.4-1.3c0.5-0.3,1.1-0.1,1.3,0.4l0.9,1.5
	c0.3,0.5,0.1,1.1-0.4,1.3C14.8,31.9,14.7,31.9,14.5,31.9z"/>
<path class="st2" d="M3.7,20.5c-0.2,0-0.3,0-0.5-0.1l-1.5-0.9c-0.5-0.3-0.6-0.9-0.4-1.3s0.9-0.6,1.3-0.4l1.5,0.9
	C4.6,19,4.7,19.6,4.5,20C4.4,20.3,4,20.5,3.7,20.5z"/>
<path class="st2" d="M17.8,28.6c-0.2,0-0.3,0-0.5-0.1l-1.5-0.9c-0.5-0.3-0.6-0.9-0.4-1.3c0.3-0.5,0.9-0.6,1.3-0.4l1.5,0.9
	c0.5,0.3,0.6,0.9,0.4,1.3C18.5,28.5,18.2,28.6,17.8,28.6z"/>
<path class="st2" d="M2.7,24.1H1c-0.5,0-1-0.4-1-1c0-0.5,0.4-1,1-1h1.8c0.5,0,1,0.4,1,1C3.7,23.7,3.3,24.1,2.7,24.1z"/>
<path class="st2" d="M19,24.1h-1.8c-0.5,0-1-0.4-1-1c0-0.5,0.4-1,1-1H19c0.5,0,1,0.4,1,1S19.6,24.1,19,24.1z"/>
<path class="st2" d="M2.2,28.6c-0.3,0-0.6-0.2-0.8-0.5c-0.3-0.5-0.1-1.1,0.4-1.3l1.5-0.9c0.5-0.3,1.1-0.1,1.3,0.4
	c0.3,0.5,0.1,1.1-0.4,1.3l-1.5,0.9C2.5,28.6,2.4,28.6,2.2,28.6z"/>
<path class="st2" d="M16.3,20.5c-0.3,0-0.6-0.2-0.8-0.5c-0.3-0.5-0.1-1.1,0.4-1.3l1.5-0.9c0.5-0.3,1.1-0.1,1.3,0.4s0.1,1.1-0.4,1.3
	l-1.5,0.9C16.6,20.4,16.5,20.5,16.3,20.5z"/>
<path class="st2" d="M5.5,31.9c-0.2,0-0.3,0-0.5-0.1c-0.5-0.3-0.6-0.9-0.4-1.3L5.5,29c0.3-0.5,0.9-0.6,1.3-0.4
	c0.5,0.3,0.6,0.9,0.4,1.3l-0.9,1.5C6.1,31.8,5.8,31.9,5.5,31.9z"/>
<path class="st2" d="M13.6,17.8c-0.2,0-0.3,0-0.5-0.1c-0.5-0.3-0.6-0.9-0.4-1.3l0.9-1.5c0.3-0.5,0.9-0.6,1.3-0.4
	c0.5,0.3,0.6,0.9,0.4,1.3l-0.9,1.5C14.3,17.6,14,17.8,13.6,17.8z"/>
<g>
	<path class="st3" d="M11.9,56.7c-0.2-0.3-0.5-0.5-0.9-0.5h-8c-0.4,0-0.8,0.2-0.9,0.6L0,61.3c0.1,0.3,0.4,0.6,0.7,0.6h8.5
		c0.4,0,0.7-0.2,0.9-0.5l1.8-3.7C12.1,57.3,12.1,57,11.9,56.7z"/>
	<path class="st3" d="M1.7,56.1c0.2-0.3,0.5-0.6,0.9-0.6h7.5v-1c0-0.4-0.3-0.7-0.7-0.7H5c0,0,0,0,0,0l-0.8-1.1
		c-0.1-0.2-0.4-0.3-0.6-0.3H0.7c-0.4,0-0.7,0.3-0.7,0.7v6.5L1.7,56.1z"/>
</g>
</svg>
